KumbhSans-ThinDisplay.ufo
<glyph name="exclam" format="1">
  <advance width="454"/>
  <unicode hex="0021"/>
  <outline>
    <contour>
      <point x="249" y="390" type="line"/>
      <point x="249" y="1500" type="line"/>
      <point x="207" y="1500" type="line"/>
      <point x="207" y="390" type="line"/>
    </contour>
    <contour>
      <point x="227" y="-20" type="curve" smooth="yes"/>
      <point x="255.571" y="-20"/>
      <point x="277" y="1.42857"/>
      <point x="277" y="30" type="curve" smooth="yes"/>
      <point x="277" y="57.381"/>
      <point x="255.571" y="80"/>
      <point x="227" y="80" type="curve" smooth="yes"/>
      <point x="198.429" y="80"/>
      <point x="177" y="57.381"/>
      <point x="177" y="30" type="curve" smooth="yes"/>
      <point x="177" y="1.42857"/>
      <point x="198.429" y="-20"/>
    </contour>
  </outline>
</glyph>
<glyph name="quotedbl" format="1">
  <advance width="733"/>
  <unicode hex="0022"/>
  <outline>
    <contour>
      <point x="232" y="1085" type="line"/>
      <point x="240" y="1520" type="line"/>
      <point x="185" y="1520" type="line"/>
      <point x="193" y="1085" type="line"/>
    </contour>
    <contour>
      <point x="540" y="1085" type="line"/>
      <point x="548" y="1520" type="line"/>
      <point x="493" y="1520" type="line"/>
      <point x="501" y="1085" type="line"/>
    </contour>
  </outline>
</glyph>
<glyph name="numbersign" format="2">
  <advance width="1319"/>
  <unicode hex="0023"/>
  <outline>
    <contour>
      <point x="1207" y="958" type="line"/>
      <point x="1214" y="1000" type="line"/>
      <point x="954" y="1000" type="line"/>
      <point x="1042" y="1500" type="line"/>
      <point x="997" y="1500" type="line"/>
      <point x="909" y="1000" type="line"/>
      <point x="491" y="1000" type="line"/>
      <point x="579" y="1500" type="line"/>
      <point x="534" y="1500" type="line"/>
      <point x="446" y="1000" type="line"/>
      <point x="179" y="1000" type="line"/>
      <point x="172" y="958" type="line"/>
      <point x="439" y="958" type="line"/>
      <point x="359" y="510" type="line"/>
      <point x="92" y="510" type="line"/>
      <point x="85" y="468" type="line"/>
      <point x="352" y="468" type="line"/>
      <point x="269" y="0" type="line"/>
      <point x="314" y="0" type="line"/>
      <point x="397" y="468" type="line"/>
      <point x="815" y="468" type="line"/>
      <point x="732" y="0" type="line"/>
      <point x="777" y="0" type="line"/>
      <point x="860" y="468" type="line"/>
      <point x="1120" y="468" type="line"/>
      <point x="1127" y="510" type="line"/>
      <point x="867" y="510" type="line"/>
      <point x="946" y="958" type="line"/>
    </contour>
    <contour>
      <point x="404" y="510" type="line"/>
      <point x="483" y="958" type="line"/>
      <point x="901" y="958" type="line"/>
      <point x="822" y="510" type="line"/>
    </contour>
  </outline>
</glyph>
<glyph name="parenleft" format="1">
  <advance width="642"/>
  <unicode hex="0028"/>
  <outline>
    <contour>
      <point x="457" y="-289" type="line" name="av02"/>
      <point x="256" y="-25"/>
      <point x="146" y="297"/>
      <point x="146" y="626" type="curve" smooth="yes" name="dh02"/>
      <point x="146" y="956"/>
      <point x="255" y="1277"/>
      <point x="457" y="1540" type="curve" name="av01"/>
      <point x="406" y="1540" type="line"/>
      <point x="210" y="1274"/>
      <point x="105" y="956"/>
      <point x="105" y="625" type="curve" smooth="yes" name="dh01"/>
      <point x="105" y="294"/>
      <point x="210" y="-24"/>
      <point x="406" y="-289" type="curve"/>
    </contour>
  </outline>
</glyph>
<glyph name="asterisk" format="2">
  <advance width="1023"/>
  <unicode hex="002A"/>
  <outline>
    <contour>
      <point x="784" y="780" type="line"/>
      <point x="527" y="1104" type="line"/>
      <point x="918" y="1207" type="line"/>
      <point x="897" y="1276" type="line"/>
      <point x="523" y="1125" type="line"/>
      <point x="546" y="1540" type="line"/>
      <point x="477" y="1540" type="line"/>
      <point x="501" y="1125" type="line"/>
      <point x="127" y="1276" type="line"/>
      <point x="105" y="1207" type="line"/>
      <point x="493" y="1102" type="line"/>
      <point x="238" y="780" type="line"/>
      <point x="295" y="737" type="line"/>
      <point x="512" y="1088" type="line"/>
      <point x="728" y="737" type="line"/>
    </contour>
  </outline>
</glyph>
<glyph name="comma" format="2">
  <advance width="453"/>
  <unicode hex="002C"/>
  <outline>
    <contour>
      <point x="180" y="-240" type="line"/>
      <point x="298" y="180" type="line"/>
      <point x="248" y="180" type="line" name="av01"/>
      <point x="145" y="-240" type="line"/>
    </contour>
  </outline>
</glyph>
<glyph name="hyphen" format="2">
  <advance width="1170"/>
  <unicode hex="002D"/>
  <outline>
    <contour>
      <point x="985" y="486" type="line"/>
      <point x="985" y="524" type="line"/>
      <point x="185" y="524" type="line" name="dv02"/>
      <point x="185" y="486" type="line" name="dv01"/>
    </contour>
  </outline>
</glyph>
<glyph name="slash" format="1">
  <advance width="771"/>
  <unicode hex="002F"/>
  <outline>
    <contour>
      <point x="89" y="-20" type="line" name="av01"/>
      <point x="726" y="1520" type="line" name="at01"/>
      <point x="682" y="1520" type="line"/>
      <point x="45" y="-20" type="line"/>
    </contour>
  </outline>
</glyph>
<glyph name="one" format="2">
  <advance width="675"/>
  <unicode hex="0031"/>
  <outline>
    <contour>
      <point x="470" y="0" type="line"/>
      <point x="470" y="1500" type="line"/>
      <point x="427" y="1500" type="line"/>
      <point x="105" y="1383" type="line"/>
      <point x="120" y="1344" type="line"/>
      <point x="426" y="1455" type="line"/>
      <point x="426" y="0" type="line"/>
    </contour>
  </outline>
</glyph>
<glyph name="three" format="2">
  <advance width="1218"/>
  <unicode hex="0033"/>
  <outline>
    <contour>
      <point x="175" y="150" type="line"/>
      <point x="290" y="32"/>
      <point x="432" y="-30"/>
      <point x="588" y="-30" type="curve" smooth="yes"/>
      <point x="854" y="-30"/>
      <point x="1043" y="148"/>
      <point x="1043" y="397" type="curve" smooth="yes"/>
      <point x="1043" y="612"/>
      <point x="902" y="756"/>
      <point x="673" y="790" type="curve"/>
      <point x="853" y="838"/>
      <point x="986" y="988"/>
      <point x="986" y="1172" type="curve" smooth="yes"/>
      <point x="986" y="1378"/>
      <point x="818" y="1530"/>
      <point x="589" y="1530" type="curve" smooth="yes"/>
      <point x="448" y="1530"/>
      <point x="318" y="1473"/>
      <point x="218" y="1371" type="curve"/>
      <point x="250" y="1340" type="line"/>
      <point x="340" y="1434"/>
      <point x="461" y="1488"/>
      <point x="588" y="1488" type="curve" smooth="yes"/>
      <point x="790" y="1488"/>
      <point x="941" y="1351"/>
      <point x="941" y="1164" type="curve" smooth="yes"/>
      <point x="941" y="957"/>
      <point x="756" y="808"/>
      <point x="505" y="808" type="curve" smooth="yes"/>
      <point x="463" y="808" type="line"/>
      <point x="463" y="766" type="line"/>
      <point x="505" y="766" type="line" smooth="yes"/>
      <point x="814" y="766"/>
      <point x="998" y="631"/>
      <point x="998" y="397" type="curve" smooth="yes"/>
      <point x="998" y="173"/>
      <point x="830" y="12"/>
      <point x="594" y="12" type="curve" smooth="yes"/>
      <point x="449" y="12"/>
      <point x="312" y="73"/>
      <point x="204" y="182" type="curve"/>
    </contour>
  </outline>
</glyph>
<glyph name="six" format="2">
  <advance width="1103"/>
  <unicode hex="0036"/>
  <outline>
    <contour>
      <point x="551" y="-30" type="curve" smooth="yes"/>
      <point x="815" y="-30"/>
      <point x="998" y="158"/>
      <point x="998" y="423" type="curve" smooth="yes"/>
      <point x="998" y="687"/>
      <point x="816" y="874"/>
      <point x="562" y="874" type="curve" smooth="yes"/>
      <point x="370" y="874"/>
      <point x="217" y="766"/>
      <point x="148" y="588" type="curve"/>
      <point x="196" y="924"/>
      <point x="412" y="1266"/>
      <point x="708" y="1466" type="curve"/>
      <point x="684" y="1500" type="line"/>
      <point x="344" y="1276"/>
      <point x="105" y="859"/>
      <point x="105" y="488" type="curve" smooth="yes"/>
      <point x="105" y="171"/>
      <point x="279" y="-30"/>
    </contour>
    <contour>
      <point x="559" y="12" type="curve" smooth="yes"/>
      <point x="332" y="12"/>
      <point x="159" y="189"/>
      <point x="159" y="422" type="curve" smooth="yes"/>
      <point x="159" y="655"/>
      <point x="332" y="833"/>
      <point x="562" y="833" type="curve" smooth="yes"/>
      <point x="789" y="833"/>
      <point x="953" y="662"/>
      <point x="953" y="426" type="curve" smooth="yes"/>
      <point x="953" y="187"/>
      <point x="785" y="12"/>
    </contour>
  </outline>
</glyph>
<glyph name="nine" format="2">
  <advance width="1103"/>
  <unicode hex="0039"/>
  <outline>
    <contour>
      <point x="418" y="0" type="line"/>
      <point x="758" y="224"/>
      <point x="998" y="641"/>
      <point x="998" y="1012" type="curve" smooth="yes"/>
      <point x="998" y="1329"/>
      <point x="823" y="1530"/>
      <point x="551" y="1530" type="curve" smooth="yes"/>
      <point x="287" y="1530"/>
      <point x="105" y="1341"/>
      <point x="105" y="1076" type="curve" smooth="yes"/>
      <point x="105" y="812"/>
      <point x="286" y="625"/>
      <point x="540" y="625" type="curve" smooth="yes"/>
      <point x="732" y="625"/>
      <point x="885" y="733"/>
      <point x="954" y="911" type="curve"/>
      <point x="906" y="575"/>
      <point x="691" y="233"/>
      <point x="395" y="33" type="curve"/>
    </contour>
    <contour>
      <point x="540" y="667" type="curve" smooth="yes"/>
      <point x="313" y="667"/>
      <point x="149" y="838"/>
      <point x="149" y="1074" type="curve" smooth="yes"/>
      <point x="149" y="1313"/>
      <point x="318" y="1488"/>
      <point x="544" y="1488" type="curve" smooth="yes"/>
      <point x="771" y="1488"/>
      <point x="943" y="1311"/>
      <point x="943" y="1078" type="curve" smooth="yes"/>
      <point x="943" y="845"/>
      <point x="770" y="667"/>
    </contour>
  </outline>
</glyph>
<glyph name="colon" format="2">
  <advance width="434"/>
  <unicode hex="003A"/>
  <outline>
    <contour>
      <point x="217" y="880" type="curve" smooth="yes"/>
      <point x="245.571" y="880"/>
      <point x="267" y="901.429"/>
      <point x="267" y="930" type="curve" smooth="yes"/>
      <point x="267" y="957.381"/>
      <point x="245.571" y="980"/>
      <point x="217" y="980" type="curve" smooth="yes"/>
      <point x="188.429" y="980"/>
      <point x="167" y="957.381"/>
      <point x="167" y="930" type="curve" smooth="yes"/>
      <point x="167" y="901.429"/>
      <point x="188.429" y="880"/>
    </contour>
    <contour>
      <point x="217" y="-20" type="curve" smooth="yes"/>
      <point x="245.571" y="-20"/>
      <point x="267" y="1.429"/>
      <point x="267" y="30" type="curve" smooth="yes"/>
      <point x="267" y="57.381"/>
      <point x="245.571" y="80"/>
      <point x="217" y="80" type="curve" smooth="yes"/>
      <point x="188.429" y="80"/>
      <point x="167" y="57.381"/>
      <point x="167" y="30" type="curve" smooth="yes"/>
      <point x="167" y="1.429"/>
      <point x="188.429" y="-20"/>
    </contour>
  </outline>
</glyph>
<glyph name="question" format="2">
  <advance width="908"/>
  <unicode hex="003F"/>
  <outline>
    <contour>
      <point x="161" y="1361" type="line"/>
      <point x="251" y="1439"/>
      <point x="367" y="1485"/>
      <point x="475" y="1485" type="curve" smooth="yes"/>
      <point x="643" y="1485"/>
      <point x="758" y="1372"/>
      <point x="758" y="1207" type="curve" smooth="yes"/>
      <point x="758" y="1088"/>
      <point x="697" y="1020"/>
      <point x="627" y="942" type="curve" smooth="yes"/>
      <point x="530" y="834"/>
      <point x="414" y="705"/>
      <point x="414" y="390" type="curve"/>
      <point x="458" y="390" type="line"/>
      <point x="458" y="681"/>
      <point x="568" y="807"/>
      <point x="664" y="917" type="curve" smooth="yes"/>
      <point x="738" y="1001"/>
      <point x="803" y="1076"/>
      <point x="803" y="1209" type="curve" smooth="yes"/>
      <point x="803" y="1399"/>
      <point x="669" y="1530"/>
      <point x="474" y="1530" type="curve" smooth="yes"/>
      <point x="360" y="1530"/>
      <point x="244" y="1484"/>
      <point x="135" y="1398" type="curve"/>
    </contour>
    <contour>
      <point x="436" y="-20" type="curve" smooth="yes"/>
      <point x="464.571" y="-20"/>
      <point x="486" y="1.429"/>
      <point x="486" y="30" type="curve" smooth="yes"/>
      <point x="486" y="57.381"/>
      <point x="464.571" y="80"/>
      <point x="436" y="80" type="curve" smooth="yes"/>
      <point x="407.429" y="80"/>
      <point x="386" y="57.381"/>
      <point x="386" y="30" type="curve" smooth="yes"/>
      <point x="386" y="1.429"/>
      <point x="407.429" y="-20"/>
    </contour>
  </outline>
</glyph>
<glyph name="B" format="2">
  <advance width="1307"/>
  <unicode hex="0042"/>
  <outline>
    <contour>
      <point x="185" y="0" type="line"/>
      <point x="698" y="0" type="line" smooth="yes" name="ab02"/>
      <point x="978" y="0"/>
      <point x="1172" y="165"/>
      <point x="1172" y="403" type="curve" smooth="yes"/>
      <point x="1172" y="605"/>
      <point x="1042" y="751"/>
      <point x="843" y="785" type="curve"/>
      <point x="1000" y="824"/>
      <point x="1107" y="962"/>
      <point x="1107" y="1140" type="curve" smooth="yes"/>
      <point x="1107" y="1360"/>
      <point x="946" y="1500"/>
      <point x="693" y="1500" type="curve" smooth="yes"/>
      <point x="185" y="1500" type="line" name="at01"/>
    </contour>
    <contour>
      <point x="229" y="804" type="line"/>
      <point x="229" y="1458" type="line"/>
      <point x="686" y="1458" type="line" smooth="yes" name="sv03"/>
      <point x="917" y="1458"/>
      <point x="1062" y="1334"/>
      <point x="1062" y="1136" type="curve" smooth="yes"/>
      <point x="1062" y="938"/>
      <point x="917" y="804"/>
      <point x="703" y="804" type="curve" smooth="yes" name="sv02"/>
    </contour>
    <contour>
      <point x="229" y="42" type="line"/>
      <point x="229" y="762" type="line"/>
      <point x="703" y="762" type="line" smooth="yes" name="dv01"/>
      <point x="957" y="762"/>
      <point x="1127" y="622"/>
      <point x="1127" y="413" type="curve" smooth="yes"/>
      <point x="1127" y="196"/>
      <point x="948" y="42"/>
      <point x="698" y="42" type="curve" smooth="yes" name="sv05"/>
    </contour>
  </outline>
</glyph>
<glyph name="E" format="2">
  <advance width="1240"/>
  <unicode hex="0045"/>
  <anchor x="624" y="0" name="bottom"/>
  <anchor x="1055" y="0" name="ogonek"/>
  <anchor x="624" y="1500" name="top"/>
  <anchor x="20" y="1500" name="topleft"/>
  <outline>
    <contour>
      <point x="185" y="0" type="line"/>
      <point x="1065" y="0" type="line"/>
      <point x="1065" y="42" type="line"/>
      <point x="229" y="42" type="line"/>
      <point x="229" y="748" type="line"/>
      <point x="1014" y="748" type="line"/>
      <point x="1014" y="790" type="line"/>
      <point x="229" y="790" type="line"/>
      <point x="229" y="1458" type="line"/>
      <point x="1055" y="1458" type="line"/>
      <point x="1055" y="1500" type="line"/>
      <point x="185" y="1500" type="line"/>
    </contour>
  </outline>
</glyph>
<glyph name="H" format="2">
  <advance width="1483"/>
  <unicode hex="0048"/>
  <anchor x="742" y="0" name="bottom"/>
  <anchor x="742" y="750" name="center"/>
  <anchor x="742" y="1500" name="top"/>
  <anchor x="20" y="1500" name="topleft"/>
  <outline>
    <contour>
      <point x="229" y="0" type="line"/>
      <point x="229" y="720" type="line"/>
      <point x="1254" y="720" type="line"/>
      <point x="1254" y="0" type="line"/>
      <point x="1298" y="0" type="line"/>
      <point x="1298" y="1500" type="line"/>
      <point x="1254" y="1500" type="line"/>
      <point x="1254" y="762" type="line"/>
      <point x="229" y="762" type="line"/>
      <point x="229" y="1500" type="line"/>
      <point x="185" y="1500" type="line"/>
      <point x="185" y="0" type="line"/>
    </contour>
  </outline>
</glyph>
<glyph name="I" format="2">
  <advance width="414"/>
  <unicode hex="0049"/>
  <anchor x="207" y="0" name="bottom"/>
  <anchor x="228" y="0" name="ogonek"/>
  <anchor x="207" y="1500" name="top"/>
  <anchor x="20" y="1500" name="topleft"/>
  <outline>
    <contour>
      <point x="185" y="0" type="line" name="dh01"/>
      <point x="229" y="0" type="line" name="ab01"/>
      <point x="229" y="1500" type="line" name="at01"/>
      <point x="185" y="1500" type="line"/>
    </contour>
  </outline>
</glyph>
<glyph name="K" format="1">
  <advance width="1294"/>
  <unicode hex="004B"/>
  <outline>
    <contour>
      <point x="229" y="0" type="line"/>
      <point x="229" y="370" type="line"/>
      <point x="556" y="781" type="line"/>
      <point x="1189" y="0" type="line"/>
      <point x="1249" y="0" type="line"/>
      <point x="586" y="817" type="line"/>
      <point x="1127" y="1500" type="line"/>
      <point x="1070.94" y="1500" type="line"/>
      <point x="304.056" y="534.181" type="line" smooth="yes"/>
      <point x="273.902" y="496.204"/>
      <point x="255" y="471.062"/>
      <point x="229" y="438" type="curve"/>
      <point x="229" y="1500" type="line"/>
      <point x="185" y="1500" type="line"/>
      <point x="185" y="0" type="line"/>
    </contour>
  </outline>
</glyph>
<glyph name="P" format="2">
  <advance width="1310"/>
  <unicode hex="0050"/>
  <outline>
    <contour>
      <point x="185" y="0" type="line"/>
      <point x="229" y="0" type="line"/>
      <point x="229" y="629" type="line"/>
      <point x="591" y="629" type="line" smooth="yes"/>
      <point x="944" y="629"/>
      <point x="1145" y="792"/>
      <point x="1145" y="1065" type="curve" smooth="yes"/>
      <point x="1145" y="1338"/>
      <point x="944" y="1500"/>
      <point x="591" y="1500" type="curve" smooth="yes"/>
      <point x="185" y="1500" type="line"/>
    </contour>
    <contour>
      <point x="229" y="671" type="line"/>
      <point x="229" y="1458" type="line"/>
      <point x="591" y="1458" type="line" smooth="yes"/>
      <point x="914" y="1458"/>
      <point x="1100" y="1309"/>
      <point x="1100" y="1065" type="curve" smooth="yes"/>
      <point x="1100" y="821"/>
      <point x="914" y="671"/>
      <point x="591" y="671" type="curve" smooth="yes"/>
    </contour>
  </outline>
</glyph>
<glyph name="R" format="1">
  <advance width="1245"/>
  <unicode hex="0052"/>
  <outline>
    <contour>
      <point x="1140" y="0" type="line"/>
      <point x="737" y="684" type="line"/>
      <point x="969" y="713"/>
      <point x="1115" y="865"/>
      <point x="1115" y="1089" type="curve" smooth="yes"/>
      <point x="1115" y="1338"/>
      <point x="934" y="1500"/>
      <point x="654" y="1500" type="curve" smooth="yes"/>
      <point x="185" y="1500" type="line"/>
      <point x="185" y="0" type="line"/>
      <point x="229" y="0" type="line"/>
      <point x="229" y="679" type="line"/>
      <point x="686" y="679" type="line"/>
      <point x="1090" y="0" type="line"/>
    </contour>
    <contour>
      <point x="229" y="721" type="line"/>
      <point x="229" y="1458" type="line"/>
      <point x="654" y="1458" type="line" smooth="yes"/>
      <point x="908" y="1458"/>
      <point x="1070" y="1314"/>
      <point x="1070" y="1089" type="curve" smooth="yes"/>
      <point x="1070" y="865"/>
      <point x="907" y="721"/>
      <point x="654" y="721" type="curve" smooth="yes"/>
    </contour>
  </outline>
</glyph>
<glyph name="S" format="2">
  <advance width="1156"/>
  <unicode hex="0053"/>
  <anchor x="615" y="0" name="bottom"/>
  <anchor x="602" y="1500" name="top"/>
  <outline>
    <contour>
      <point x="115" y="131" type="line"/>
      <point x="241" y="27"/>
      <point x="396" y="-30"/>
      <point x="553" y="-30" type="curve" smooth="yes"/>
      <point x="826" y="-30"/>
      <point x="1021" y="142"/>
      <point x="1021" y="384" type="curve" smooth="yes"/>
      <point x="1021" y="636"/>
      <point x="811" y="725"/>
      <point x="609" y="811" type="curve" smooth="yes"/>
      <point x="421" y="891"/>
      <point x="239" y="968"/>
      <point x="239" y="1171" type="curve" smooth="yes"/>
      <point x="239" y="1359"/>
      <point x="394" y="1488"/>
      <point x="611" y="1488" type="curve" smooth="yes"/>
      <point x="710" y="1488"/>
      <point x="810" y="1461"/>
      <point x="902" y="1410" type="curve"/>
      <point x="925" y="1449" type="line"/>
      <point x="833" y="1502"/>
      <point x="726" y="1530"/>
      <point x="616" y="1530" type="curve" smooth="yes"/>
      <point x="365" y="1530"/>
      <point x="194" y="1385"/>
      <point x="194" y="1171" type="curve" smooth="yes"/>
      <point x="194" y="942"/>
      <point x="390" y="858"/>
      <point x="586" y="775" type="curve" smooth="yes"/>
      <point x="781" y="692"/>
      <point x="976" y="610"/>
      <point x="976" y="382" type="curve" smooth="yes"/>
      <point x="976" y="165"/>
      <point x="799" y="12"/>
      <point x="549" y="12" type="curve" smooth="yes"/>
      <point x="400" y="12"/>
      <point x="259" y="66"/>
      <point x="140" y="166" type="curve"/>
    </contour>
  </outline>
</glyph>
<glyph name="T" format="1">
  <advance width="1218"/>
  <unicode hex="0054"/>
  <outline>
    <contour>
      <point x="631" y="0" type="line"/>
      <point x="631" y="1458" type="line"/>
      <point x="1153" y="1458" type="line"/>
      <point x="1153" y="1500" type="line"/>
      <point x="65" y="1500" type="line"/>
      <point x="65" y="1458" type="line"/>
      <point x="587" y="1458" type="line"/>
      <point x="587" y="0" type="line"/>
    </contour>
  </outline>
</glyph>
<glyph name="X" format="2">
  <advance width="1423"/>
  <unicode hex="0058"/>
  <outline>
    <contour>
      <point x="1338" y="0" type="line"/>
      <point x="741" y="778" type="line"/>
      <point x="1295" y="1500" type="line"/>
      <point x="1240" y="1500" type="line"/>
      <point x="713" y="812" type="line"/>
      <point x="185" y="1500" type="line"/>
      <point x="130" y="1500" type="line"/>
      <point x="683" y="779" type="line"/>
      <point x="85" y="0" type="line"/>
      <point x="140" y="0" type="line"/>
      <point x="712" y="744" type="line"/>
      <point x="1283" y="0" type="line"/>
    </contour>
  </outline>
</glyph>
<glyph name="Y" format="2">
  <advance width="1348"/>
  <unicode hex="0059"/>
  <anchor x="674" y="0" name="bottom"/>
  <anchor x="674" y="1500" name="top"/>
  <anchor x="20" y="1500" name="topleft"/>
  <outline>
    <contour>
      <point x="695" y="0" type="line"/>
      <point x="695" y="641" type="line"/>
      <point x="1293" y="1500" type="line"/>
      <point x="1240" y="1500" type="line"/>
      <point x="674" y="686" type="line"/>
      <point x="108" y="1500" type="line"/>
      <point x="55" y="1500" type="line"/>
      <point x="651" y="641" type="line"/>
      <point x="651" y="0" type="line"/>
    </contour>
  </outline>
</glyph>
<glyph name="bracketright" format="2">
  <advance width="591"/>
  <unicode hex="005D"/>
  <outline>
    <contour>
      <point x="406" y="-289" type="line" name="dv01"/>
      <point x="406" y="1540" type="line" name="dv04"/>
      <point x="105" y="1540" type="line"/>
      <point x="105" y="1502" type="line" name="sh02"/>
      <point x="365" y="1502" type="line" name="dv03"/>
      <point x="365" y="-251" type="line" name="dv02"/>
      <point x="105" y="-251" type="line"/>
      <point x="105" y="-289" type="line" name="sh01"/>
    </contour>
  </outline>
</glyph>
<glyph name="asciicircum" format="2">
  <advance width="1029"/>
  <unicode hex="005E"/>
  <outline>
    <contour>
      <point x="924" y="700" type="line"/>
      <point x="534" y="1500" type="line"/>
      <point x="495" y="1500" type="line"/>
      <point x="105" y="700" type="line"/>
      <point x="151" y="700" type="line"/>
      <point x="514" y="1445" type="line"/>
      <point x="878" y="700" type="line"/>
    </contour>
  </outline>
</glyph>
<glyph name="grave" format="1">
  <advance width="464"/>
  <unicode hex="0060"/>
  <outline>
    <contour>
      <point x="339" y="1170" type="line"/>
      <point x="167" y="1500" type="line"/>
      <point x="115" y="1500" type="line"/>
      <point x="305" y="1170" type="line"/>
    </contour>
  </outline>
</glyph>
<glyph name="b" format="1">
  <advance width="1308"/>
  <unicode hex="0062"/>
  <outline>
    <contour>
      <point x="224" y="0" type="line"/>
      <point x="226" y="299" type="line"/>
      <point x="300" y="108"/>
      <point x="479" y="-20"/>
      <point x="697" y="-20" type="curve" smooth="yes"/>
      <point x="984" y="-20"/>
      <point x="1203" y="205"/>
      <point x="1203" y="500" type="curve" smooth="yes"/>
      <point x="1203" y="795"/>
      <point x="984" y="1020"/>
      <point x="697" y="1020" type="curve" smooth="yes"/>
      <point x="479" y="1020"/>
      <point x="300" y="891"/>
      <point x="226" y="701" type="curve"/>
      <point x="226" y="1500" type="line"/>
      <point x="185" y="1500" type="line"/>
      <point x="185" y="0" type="line"/>
    </contour>
    <contour>
      <point x="694" y="18" type="curve" smooth="yes"/>
      <point x="438" y="18"/>
      <point x="241" y="209"/>
      <point x="226" y="467" type="curve"/>
      <point x="226" y="533" type="line"/>
      <point x="241" y="791"/>
      <point x="438" y="982"/>
      <point x="694" y="982" type="curve" smooth="yes"/>
      <point x="959" y="982"/>
      <point x="1161" y="774"/>
      <point x="1161" y="500" type="curve" smooth="yes"/>
      <point x="1161" y="226"/>
      <point x="959" y="18"/>
    </contour>
  </outline>
</glyph>
<glyph name="d" format="2">
  <advance width="1308"/>
  <unicode hex="0064"/>
  <outline>
    <contour>
      <point x="1123" y="0" type="line"/>
      <point x="1123" y="1500" type="line"/>
      <point x="1082" y="1500" type="line"/>
      <point x="1082" y="715" type="line"/>
      <point x="1008" y="905"/>
      <point x="830" y="1020"/>
      <point x="619" y="1020" type="curve" smooth="yes"/>
      <point x="324" y="1020"/>
      <point x="105" y="795"/>
      <point x="105" y="500" type="curve" smooth="yes"/>
      <point x="105" y="205"/>
      <point x="323" y="-20"/>
      <point x="619" y="-20" type="curve" smooth="yes"/>
      <point x="829" y="-20"/>
      <point x="1008" y="93"/>
      <point x="1082" y="284" type="curve"/>
      <point x="1082" y="0" type="line"/>
    </contour>
    <contour>
      <point x="615" y="18" type="curve" smooth="yes"/>
      <point x="349" y="18"/>
      <point x="147" y="226"/>
      <point x="147" y="500" type="curve" smooth="yes"/>
      <point x="147" y="774"/>
      <point x="349" y="982"/>
      <point x="616" y="982" type="curve" smooth="yes"/>
      <point x="877" y="982"/>
      <point x="1082" y="785"/>
      <point x="1082" y="533" type="curve" smooth="yes"/>
      <point x="1082" y="467" type="line" smooth="yes"/>
      <point x="1082" y="209"/>
      <point x="870" y="18"/>
    </contour>
  </outline>
</glyph>
<glyph name="e" format="1">
  <advance width="1184"/>
  <unicode hex="0065"/>
  <outline>
    <contour>
      <point x="1035" y="129" type="curve"/>
      <point x="1012" y="160" type="line"/>
      <point x="898" y="68"/>
      <point x="765" y="18"/>
      <point x="628" y="18" type="curve" smooth="yes"/>
      <point x="355" y="18"/>
      <point x="147" y="216"/>
      <point x="147" y="492" type="curve"/>
      <point x="1079" y="492" type="line"/>
      <point x="1079" y="520" type="line" smooth="yes"/>
      <point x="1079" y="813"/>
      <point x="881" y="1020"/>
      <point x="600" y="1020" type="curve" smooth="yes"/>
      <point x="313" y="1020"/>
      <point x="105" y="805"/>
      <point x="105" y="507" type="curve" smooth="yes"/>
      <point x="105" y="200"/>
      <point x="325" y="-20"/>
      <point x="630" y="-20" type="curve" smooth="yes"/>
      <point x="778" y="-20"/>
      <point x="918" y="32"/>
    </contour>
    <contour>
      <point x="147" y="530" type="line"/>
      <point x="156" y="795"/>
      <point x="343" y="982"/>
      <point x="600" y="982" type="curve" smooth="yes"/>
      <point x="856" y="982"/>
      <point x="1033" y="797"/>
      <point x="1042" y="530" type="curve"/>
    </contour>
  </outline>
</glyph>
<glyph name="f" format="2">
  <advance width="733"/>
  <unicode hex="0066"/>
  <outline>
    <contour>
      <point x="301" y="0" type="line"/>
      <point x="301" y="962" type="line"/>
      <point x="621" y="962" type="line"/>
      <point x="621" y="1000" type="line"/>
      <point x="301" y="1000" type="line"/>
      <point x="301" y="1267" type="line" smooth="yes"/>
      <point x="301" y="1403"/>
      <point x="378" y="1492"/>
      <point x="495" y="1492" type="curve" smooth="yes"/>
      <point x="539" y="1492"/>
      <point x="585" y="1479"/>
      <point x="632" y="1454" type="curve"/>
      <point x="648" y="1489" type="line"/>
      <point x="597" y="1516"/>
      <point x="543" y="1530"/>
      <point x="492" y="1530" type="curve" smooth="yes"/>
      <point x="352" y="1530"/>
      <point x="260" y="1429"/>
      <point x="260" y="1274" type="curve" smooth="yes"/>
      <point x="260" y="1000" type="line"/>
      <point x="85" y="1000" type="line"/>
      <point x="85" y="962" type="line"/>
      <point x="260" y="962" type="line"/>
      <point x="260" y="0" type="line"/>
    </contour>
  </outline>
</glyph>
<glyph name="j" format="1">
  <advance width="471"/>
  <unicode hex="006A"/>
  <outline>
    <contour>
      <point x="246" y="1419" type="curve" smooth="yes"/>
      <point x="274" y="1419"/>
      <point x="296" y="1441"/>
      <point x="296" y="1469" type="curve" smooth="yes"/>
      <point x="296" y="1497"/>
      <point x="274" y="1520"/>
      <point x="246" y="1520" type="curve" smooth="yes"/>
      <point x="218" y="1520"/>
      <point x="196" y="1497"/>
      <point x="196" y="1469" type="curve" smooth="yes"/>
      <point x="196" y="1441"/>
      <point x="218" y="1419"/>
    </contour>
    <contour>
      <point x="-85" y="-513" type="line"/>
      <point x="-60" y="-518"/>
      <point x="-36" y="-520"/>
      <point x="-13" y="-520" type="curve" smooth="yes"/>
      <point x="155" y="-520"/>
      <point x="267" y="-391"/>
      <point x="267" y="-183" type="curve" smooth="yes"/>
      <point x="267" y="1000" type="line"/>
      <point x="225" y="1000" type="line"/>
      <point x="225" y="-183" type="line" smooth="yes"/>
      <point x="225" y="-363"/>
      <point x="121" y="-483"/>
      <point x="-25" y="-483" type="curve" smooth="yes"/>
      <point x="-43" y="-483"/>
      <point x="-62" y="-481"/>
      <point x="-81" y="-477" type="curve"/>
    </contour>
  </outline>
</glyph>
<glyph name="l" format="1">
  <advance width="410"/>
  <unicode hex="006C"/>
  <outline>
    <contour>
      <point x="225" y="0" type="line"/>
      <point x="225" y="1540" type="line" name="av01"/>
      <point x="185" y="1540" type="line" name="dh01"/>
      <point x="185" y="0" type="line" name="ab01"/>
    </contour>
  </outline>
</glyph>
<glyph name="m" format="1">
  <advance width="1899"/>
  <unicode hex="006D"/>
  <outline>
    <contour>
      <point x="1724" y="0" type="line"/>
      <point x="1724" y="563" type="line" smooth="yes"/>
      <point x="1724" y="851"/>
      <point x="1580" y="1020"/>
      <point x="1336" y="1020" type="curve" smooth="yes"/>
      <point x="1141" y="1020"/>
      <point x="1010" y="914"/>
      <point x="959" y="716" type="curve"/>
      <point x="915" y="911"/>
      <point x="783" y="1020"/>
      <point x="587" y="1020" type="curve" smooth="yes"/>
      <point x="409" y="1020"/>
      <point x="284" y="932"/>
      <point x="225" y="766" type="curve"/>
      <point x="223" y="1000" type="line"/>
      <point x="185" y="1000" type="line"/>
      <point x="185" y="0" type="line"/>
      <point x="226" y="0" type="line"/>
      <point x="226" y="563" type="line" smooth="yes"/>
      <point x="226" y="822"/>
      <point x="363" y="982"/>
      <point x="584" y="982" type="curve" smooth="yes"/>
      <point x="804" y="982"/>
      <point x="934" y="826"/>
      <point x="934" y="563" type="curve" smooth="yes"/>
      <point x="934" y="0" type="line"/>
      <point x="975" y="0" type="line"/>
      <point x="975" y="563" type="line" smooth="yes"/>
      <point x="975" y="822"/>
      <point x="1111" y="982"/>
      <point x="1332" y="982" type="curve" smooth="yes"/>
      <point x="1552" y="982"/>
      <point x="1683" y="826"/>
      <point x="1683" y="563" type="curve" smooth="yes"/>
      <point x="1683" y="0" type="line"/>
    </contour>
  </outline>
</glyph>
<glyph name="p" format="1">
  <advance width="1308"/>
  <unicode hex="0070"/>
  <outline>
    <contour>
      <point x="226" y="-500" type="line"/>
      <point x="226" y="283" type="line"/>
      <point x="300" y="93"/>
      <point x="479" y="-20"/>
      <point x="688" y="-20" type="curve" smooth="yes"/>
      <point x="984" y="-20"/>
      <point x="1203" y="205"/>
      <point x="1203" y="500" type="curve" smooth="yes"/>
      <point x="1203" y="795"/>
      <point x="984" y="1020"/>
      <point x="689" y="1020" type="curve" smooth="yes"/>
      <point x="479" y="1020"/>
      <point x="300" y="906"/>
      <point x="225" y="715" type="curve"/>
      <point x="225" y="1000" type="line"/>
      <point x="185" y="1000" type="line"/>
      <point x="185" y="-500" type="line"/>
    </contour>
    <contour>
      <point x="693" y="18" type="curve" smooth="yes"/>
      <point x="438" y="18"/>
      <point x="226" y="209"/>
      <point x="226" y="467" type="curve" smooth="yes"/>
      <point x="226" y="533" type="line" smooth="yes"/>
      <point x="226" y="791"/>
      <point x="438" y="982"/>
      <point x="693" y="982" type="curve" smooth="yes"/>
      <point x="959" y="982"/>
      <point x="1161" y="774"/>
      <point x="1161" y="500" type="curve" smooth="yes"/>
      <point x="1161" y="226"/>
      <point x="959" y="18"/>
    </contour>
  </outline>
</glyph>
<glyph name="q" format="2">
  <advance width="1309"/>
  <unicode hex="0071"/>
  <outline>
    <contour>
      <point x="1124" y="-500" type="line"/>
      <point x="1124" y="1000" type="line"/>
      <point x="1083" y="1000" type="line"/>
      <point x="1083" y="716" type="line"/>
      <point x="1008" y="907"/>
      <point x="830" y="1020"/>
      <point x="620" y="1020" type="curve" smooth="yes"/>
      <point x="324" y="1020"/>
      <point x="105" y="795"/>
      <point x="105" y="500" type="curve" smooth="yes"/>
      <point x="105" y="205"/>
      <point x="324" y="-20"/>
      <point x="621" y="-20" type="curve" smooth="yes"/>
      <point x="830" y="-20"/>
      <point x="1008" y="92"/>
      <point x="1082" y="282" type="curve"/>
      <point x="1082" y="-500" type="line"/>
    </contour>
    <contour>
      <point x="616" y="18" type="curve" smooth="yes"/>
      <point x="350" y="18"/>
      <point x="147" y="226"/>
      <point x="147" y="500" type="curve" smooth="yes"/>
      <point x="147" y="774"/>
      <point x="350" y="982"/>
      <point x="616" y="982" type="curve" smooth="yes"/>
      <point x="871" y="982"/>
      <point x="1082" y="791"/>
      <point x="1082" y="533" type="curve" smooth="yes"/>
      <point x="1082" y="467" type="line" smooth="yes"/>
      <point x="1082" y="209"/>
      <point x="871" y="18"/>
    </contour>
  </outline>
</glyph>
<glyph name="s" format="1">
  <advance width="840"/>
  <unicode hex="0073"/>
  <outline>
    <contour>
      <point x="115" y="88" type="line"/>
      <point x="201" y="17"/>
      <point x="302" y="-20"/>
      <point x="408" y="-20" type="curve" smooth="yes"/>
      <point x="595" y="-20"/>
      <point x="725" y="95"/>
      <point x="725" y="261" type="curve" smooth="yes"/>
      <point x="725" y="435"/>
      <point x="582" y="496"/>
      <point x="446" y="554" type="curve" smooth="yes"/>
      <point x="323" y="606"/>
      <point x="205" y="656"/>
      <point x="205" y="785" type="curve" smooth="yes"/>
      <point x="205" y="902"/>
      <point x="303" y="982"/>
      <point x="446" y="982" type="curve" smooth="yes"/>
      <point x="514" y="982"/>
      <point x="590" y="964"/>
      <point x="644" y="934" type="curve"/>
      <point x="661" y="970" type="line"/>
      <point x="591" y="1003"/>
      <point x="517" y="1020"/>
      <point x="444" y="1020" type="curve" smooth="yes"/>
      <point x="273" y="1020"/>
      <point x="163" y="928"/>
      <point x="163" y="785" type="curve" smooth="yes"/>
      <point x="163" y="630"/>
      <point x="294" y="576"/>
      <point x="424" y="521" type="curve" smooth="yes"/>
      <point x="554" y="467"/>
      <point x="683" y="413"/>
      <point x="683" y="262" type="curve" smooth="yes"/>
      <point x="683" y="119"/>
      <point x="567" y="18"/>
      <point x="406" y="18" type="curve" smooth="yes"/>
      <point x="310" y="18"/>
      <point x="215" y="55"/>
      <point x="138" y="121" type="curve"/>
    </contour>
  </outline>
</glyph>
<glyph name="t" format="2">
  <advance width="793"/>
  <unicode hex="0074"/>
  <anchor x="437" y="0" name="bottom"/>
  <anchor x="397" y="500" name="center"/>
  <anchor x="397" y="1000" name="top"/>
  <anchor x="773" y="1500" name="topright"/>
  <outline>
    <contour>
      <point x="678" y="21" type="curve"/>
      <point x="662" y="56" type="line"/>
      <point x="615" y="31"/>
      <point x="569" y="18"/>
      <point x="525" y="18" type="curve" smooth="yes"/>
      <point x="408" y="18"/>
      <point x="331" y="107"/>
      <point x="331" y="243" type="curve" smooth="yes"/>
      <point x="331" y="962" type="line"/>
      <point x="651" y="962" type="line"/>
      <point x="651" y="1000" type="line"/>
      <point x="331" y="1000" type="line"/>
      <point x="331" y="1250" type="line"/>
      <point x="290" y="1250" type="line"/>
      <point x="290" y="1000" type="line"/>
      <point x="115" y="1000" type="line"/>
      <point x="115" y="962" type="line"/>
      <point x="290" y="962" type="line"/>
      <point x="290" y="236" type="line" smooth="yes"/>
      <point x="290" y="81"/>
      <point x="382" y="-20"/>
      <point x="522" y="-20" type="curve" smooth="yes"/>
      <point x="573" y="-20"/>
      <point x="627" y="-6"/>
    </contour>
  </outline>
</glyph>
<glyph name="u" format="2">
  <advance width="1192"/>
  <unicode hex="0075"/>
  <anchor x="596" y="0" name="bottom"/>
  <anchor x="1073" y="10" name="ogonek"/>
  <anchor x="596" y="1000" name="top"/>
  <anchor x="1172" y="1000" name="topright"/>
  <outline>
    <contour>
      <point x="1007" y="0" type="line"/>
      <point x="1007" y="1000" type="line"/>
      <point x="966" y="1000" type="line"/>
      <point x="966" y="437" type="line" smooth="yes"/>
      <point x="966" y="178"/>
      <point x="819" y="18"/>
      <point x="582" y="18" type="curve" smooth="yes"/>
      <point x="346" y="18"/>
      <point x="206" y="174"/>
      <point x="206" y="437" type="curve" smooth="yes"/>
      <point x="206" y="1000" type="line"/>
      <point x="165" y="1000" type="line"/>
      <point x="165" y="437" type="line" smooth="yes"/>
      <point x="165" y="149"/>
      <point x="319" y="-20"/>
      <point x="583" y="-20" type="curve" smooth="yes"/>
      <point x="771" y="-20"/>
      <point x="905" y="67"/>
      <point x="968" y="235" type="curve"/>
      <point x="968" y="0" type="line"/>
    </contour>
  </outline>
</glyph>
<glyph name="x" format="2">
  <advance width="1013"/>
  <unicode hex="0078"/>
  <outline>
    <contour>
      <point x="97" y="0" type="line"/>
      <point x="506" y="500" type="line"/>
      <point x="916" y="0" type="line"/>
      <point x="968" y="0" type="line"/>
      <point x="533" y="532" type="line"/>
      <point x="916" y="1000" type="line"/>
      <point x="864" y="1000" type="line"/>
      <point x="507" y="563" type="line"/>
      <point x="149" y="1000" type="line"/>
      <point x="97" y="1000" type="line"/>
      <point x="481" y="532" type="line"/>
      <point x="45" y="0" type="line"/>
    </contour>
  </outline>
</glyph>
<glyph name="y" format="2">
  <advance width="1082"/>
  <unicode hex="0079"/>
  <anchor x="849" y="0" name="bottom"/>
  <anchor x="578" y="1000" name="top"/>
  <outline>
    <contour>
      <point x="376" y="-500" type="line"/>
      <point x="997" y="1000" type="line"/>
      <point x="953" y="1000" type="line"/>
      <point x="565" y="64" type="line"/>
      <point x="130" y="1000" type="line"/>
      <point x="85" y="1000" type="line"/>
      <point x="544" y="13" type="line"/>
      <point x="332" y="-500" type="line"/>
    </contour>
  </outline>
</glyph>
<glyph name="braceright" format="2">
  <advance width="575"/>
  <unicode hex="007D"/>
  <outline>
    <contour>
      <point x="105" y="-289" type="line"/>
      <point x="239" y="-289"/>
      <point x="306" y="-225"/>
      <point x="306" y="-96" type="curve" smooth="yes"/>
      <point x="306" y="391" type="line" smooth="yes"/>
      <point x="306" y="506"/>
      <point x="378" y="601"/>
      <point x="470" y="608" type="curve"/>
      <point x="470" y="643" type="line"/>
      <point x="378" y="650"/>
      <point x="306" y="744"/>
      <point x="306" y="859" type="curve" smooth="yes"/>
      <point x="306" y="1347" type="line" smooth="yes"/>
      <point x="306" y="1476"/>
      <point x="239" y="1540"/>
      <point x="105" y="1540" type="curve"/>
      <point x="105" y="1502" type="line"/>
      <point x="215" y="1502"/>
      <point x="265" y="1451"/>
      <point x="265" y="1338" type="curve" smooth="yes"/>
      <point x="265" y="859" type="line" smooth="yes"/>
      <point x="265" y="754"/>
      <point x="321" y="664"/>
      <point x="407" y="625" type="curve"/>
      <point x="321" y="586"/>
      <point x="265" y="496"/>
      <point x="265" y="391" type="curve" smooth="yes"/>
      <point x="265" y="-87" type="line" smooth="yes"/>
      <point x="265" y="-200"/>
      <point x="215" y="-251"/>
      <point x="105" y="-251" type="curve"/>
    </contour>
  </outline>
</glyph>
<glyph name="exclamdown" format="2">
  <advance width="434"/>
  <unicode hex="00A1"/>
  <outline>
    <contour>
      <point x="215.81" y="920" type="curve" smooth="yes"/>
      <point x="244.381" y="920"/>
      <point x="267" y="942.619"/>
      <point x="267" y="970" type="curve" smooth="yes"/>
      <point x="267" y="998.571"/>
      <point x="244.381" y="1020"/>
      <point x="215.81" y="1020" type="curve" smooth="yes"/>
      <point x="187.238" y="1020"/>
      <point x="167" y="998.571"/>
      <point x="167" y="970" type="curve" smooth="yes"/>
      <point x="167" y="942.619"/>
      <point x="187.238" y="920"/>
    </contour>
    <contour>
      <point x="237" y="-500" type="line"/>
      <point x="236" y="610" type="line"/>
      <point x="197" y="610" type="line"/>
      <point x="197" y="-500" type="line"/>
    </contour>
  </outline>
</glyph>
<glyph name="dieresis" format="1">
  <advance width="872"/>
  <unicode hex="00A8"/>
  <outline>
    <contour>
      <point x="647" y="1303" type="curve" smooth="yes"/>
      <point x="677" y="1303"/>
      <point x="697" y="1323"/>
      <point x="697" y="1353" type="curve" smooth="yes"/>
      <point x="697" y="1383"/>
      <point x="677" y="1403"/>
      <point x="647" y="1403" type="curve" smooth="yes"/>
      <point x="617" y="1403"/>
      <point x="597" y="1383"/>
      <point x="597" y="1353" type="curve" smooth="yes"/>
      <point x="597" y="1323"/>
      <point x="617" y="1303"/>
    </contour>
    <contour>
      <point x="225" y="1303" type="curve" smooth="yes"/>
      <point x="255" y="1303"/>
      <point x="275" y="1323"/>
      <point x="275" y="1353" type="curve" smooth="yes"/>
      <point x="275" y="1383"/>
      <point x="255" y="1403"/>
      <point x="225" y="1403" type="curve" smooth="yes"/>
      <point x="195" y="1403"/>
      <point x="175" y="1383"/>
      <point x="175" y="1353" type="curve" smooth="yes"/>
      <point x="175" y="1323"/>
      <point x="195" y="1303"/>
    </contour>
  </outline>
</glyph>
<glyph name="copyright" format="2">
  <advance width="1409"/>
  <unicode hex="00A9"/>
  <outline>
    <contour>
      <point x="705" y="-104" type="curve" smooth="yes"/>
      <point x="1051" y="-104"/>
      <point x="1304" y="149"/>
      <point x="1304" y="495" type="curve" smooth="yes"/>
      <point x="1304" y="840"/>
      <point x="1051" y="1093"/>
      <point x="705" y="1093" type="curve" smooth="yes"/>
      <point x="358" y="1093"/>
      <point x="105" y="840"/>
      <point x="105" y="495" type="curve" smooth="yes"/>
      <point x="105" y="149"/>
      <point x="358" y="-104"/>
    </contour>
    <contour>
      <point x="705" y="-65" type="curve" smooth="yes"/>
      <point x="383" y="-65"/>
      <point x="147" y="171"/>
      <point x="147" y="493" type="curve" smooth="yes"/>
      <point x="147" y="817"/>
      <point x="385" y="1055"/>
      <point x="705" y="1055" type="curve" smooth="yes"/>
      <point x="1024" y="1055"/>
      <point x="1262" y="816"/>
      <point x="1262" y="493" type="curve" smooth="yes"/>
      <point x="1262" y="172"/>
      <point x="1026" y="-65"/>
    </contour>
    <contour>
      <point x="963" y="265" type="curve"/>
      <point x="935" y="293" type="line"/>
      <point x="877" y="241"/>
      <point x="801" y="212"/>
      <point x="722" y="212" type="curve" smooth="yes"/>
      <point x="562" y="212"/>
      <point x="447" y="330"/>
      <point x="447" y="495" type="curve" smooth="yes"/>
      <point x="447" y="659"/>
      <point x="562" y="777"/>
      <point x="722" y="777" type="curve" smooth="yes"/>
      <point x="804" y="777"/>
      <point x="887" y="746"/>
      <point x="935" y="696" type="curve"/>
      <point x="963" y="724" type="line"/>
      <point x="895" y="783"/>
      <point x="811" y="815"/>
      <point x="722" y="815" type="curve" smooth="yes"/>
      <point x="539" y="815"/>
      <point x="405" y="680"/>
      <point x="405" y="495" type="curve" smooth="yes"/>
      <point x="405" y="310"/>
      <point x="539" y="174"/>
      <point x="722" y="174" type="curve" smooth="yes"/>
      <point x="810" y="174"/>
      <point x="895" y="206"/>
    </contour>
  </outline>
</glyph>
<glyph name="ordfeminine" format="1">
  <advance width="855"/>
  <unicode hex="00AA"/>
  <outline>
    <contour>
      <point x="670" y="810" type="line" name="n0"/>
      <point x="670" y="1247" type="line" smooth="yes" name="n1"/>
      <point x="670" y="1415"/>
      <point x="571" y="1520"/>
      <point x="413" y="1520" type="curve" smooth="yes"/>
      <point x="328" y="1520"/>
      <point x="245" y="1490"/>
      <point x="178" y="1435" type="curve" name="n7"/>
      <point x="204" y="1402" type="line"/>
      <point x="263" y="1451"/>
      <point x="344" y="1482"/>
      <point x="418" y="1482" type="curve" smooth="yes"/>
      <point x="549" y="1482"/>
      <point x="629" y="1387"/>
      <point x="629" y="1229" type="curve" smooth="yes" name="n14"/>
      <point x="629" y="1168" type="line" name="n14.1"/>
      <point x="563" y="1212"/>
      <point x="487" y="1232"/>
      <point x="416" y="1232" type="curve" smooth="yes"/>
      <point x="268" y="1232"/>
      <point x="135" y="1146"/>
      <point x="135" y="1012" type="curve" smooth="yes" name="n20"/>
      <point x="135" y="891" name="n21"/>
      <point x="241" y="800" name="n22"/>
      <point x="382" y="800" type="curve" smooth="yes" name="n23"/>
      <point x="495" y="800"/>
      <point x="586" y="858"/>
      <point x="630" y="948" type="curve"/>
      <point x="635" y="810" type="line" name="n16"/>
    </contour>
    <contour>
      <point x="382" y="839" type="curve" smooth="yes"/>
      <point x="262" y="839"/>
      <point x="177" y="909"/>
      <point x="177" y="1009" type="curve" smooth="yes"/>
      <point x="177" y="1116"/>
      <point x="273" y="1192"/>
      <point x="409" y="1192" type="curve" smooth="yes"/>
      <point x="487" y="1192"/>
      <point x="566" y="1167"/>
      <point x="629" y="1120" type="curve" name="n13"/>
      <point x="629" y="1057" type="line" smooth="yes" name="n1.1"/>
      <point x="629" y="928"/>
      <point x="519" y="839"/>
    </contour>
  </outline>
</glyph>
<glyph name="guillemotleft" format="2">
  <advance width="1074"/>
  <unicode hex="00AB"/>
  <outline>
    <contour>
      <point x="889" y="111" type="line"/>
      <point x="566" y="496" type="line"/>
      <point x="889" y="882" type="line"/>
      <point x="835" y="882" type="line"/>
      <point x="512" y="497" type="line"/>
      <point x="835" y="111" type="line"/>
    </contour>
    <contour>
      <point x="483" y="111" type="line"/>
      <point x="159" y="496" type="line"/>
      <point x="483" y="882" type="line"/>
      <point x="428" y="882" type="line"/>
      <point x="105" y="497" type="line"/>
      <point x="428" y="111" type="line"/>
    </contour>
  </outline>
</glyph>
<glyph name="logicalnot" format="1">
  <advance width="1135"/>
  <unicode hex="00AC"/>
  <outline>
    <contour>
      <point x="950" y="144" type="line"/>
      <point x="950" y="561" type="line"/>
      <point x="185" y="561" type="line"/>
      <point x="185" y="523" type="line"/>
      <point x="909" y="523" type="line"/>
      <point x="909" y="144" type="line"/>
    </contour>
  </outline>
</glyph>
<glyph name="registered" format="1">
  <advance width="1409"/>
  <unicode hex="00AE"/>
  <outline>
    <contour>
      <point x="705" y="424" type="curve" smooth="yes"/>
      <point x="1051" y="424"/>
      <point x="1304" y="677"/>
      <point x="1304" y="1023" type="curve" smooth="yes"/>
      <point x="1304" y="1368"/>
      <point x="1051" y="1621"/>
      <point x="705" y="1621" type="curve" smooth="yes"/>
      <point x="358" y="1621"/>
      <point x="105" y="1368"/>
      <point x="105" y="1023" type="curve" smooth="yes"/>
      <point x="105" y="677"/>
      <point x="358" y="424"/>
    </contour>
    <contour>
      <point x="705" y="463" type="curve" smooth="yes"/>
      <point x="383" y="463"/>
      <point x="147" y="699"/>
      <point x="147" y="1021" type="curve" smooth="yes"/>
      <point x="147" y="1345"/>
      <point x="385" y="1583"/>
      <point x="705" y="1583" type="curve" smooth="yes"/>
      <point x="1024" y="1583"/>
      <point x="1262" y="1344"/>
      <point x="1262" y="1021" type="curve" smooth="yes"/>
      <point x="1262" y="700"/>
      <point x="1026" y="463"/>
    </contour>
    <contour>
      <point x="956" y="700" type="line"/>
      <point x="798" y="985" type="line"/>
      <point x="886" y="1010"/>
      <point x="936" y="1072"/>
      <point x="936" y="1158" type="curve" smooth="yes"/>
      <point x="936" y="1274"/>
      <point x="846" y="1345"/>
      <point x="702" y="1345" type="curve" smooth="yes"/>
      <point x="533" y="1345" type="line"/>
      <point x="533" y="703" type="line"/>
      <point x="574" y="703" type="line"/>
      <point x="574" y="974" type="line"/>
      <point x="758" y="974" type="line"/>
      <point x="909" y="700" type="line"/>
    </contour>
    <contour>
      <point x="574" y="1011" type="line"/>
      <point x="574" y="1307" type="line"/>
      <point x="693" y="1307" type="line" smooth="yes"/>
      <point x="815" y="1307"/>
      <point x="894" y="1248"/>
      <point x="894" y="1159" type="curve" smooth="yes"/>
      <point x="894" y="1076"/>
      <point x="823" y="1011"/>
      <point x="732" y="1011" type="curve" smooth="yes"/>
    </contour>
  </outline>
</glyph>
<glyph name="degree" format="1">
  <advance width="710"/>
  <unicode hex="00B0"/>
  <outline>
    <contour>
      <point x="355" y="1020" type="curve" smooth="yes" name="at02"/>
      <point x="500" y="1020"/>
      <point x="605" y="1126"/>
      <point x="605" y="1270" type="curve" smooth="yes" name="sh03"/>
      <point x="605" y="1414"/>
      <point x="499" y="1520"/>
      <point x="355" y="1520" type="curve" smooth="yes" name="at01"/>
      <point x="211" y="1520"/>
      <point x="105" y="1415"/>
      <point x="105" y="1270" type="curve" smooth="yes" name="sh01"/>
      <point x="105" y="1125"/>
      <point x="210" y="1020"/>
    </contour>
    <contour>
      <point x="355" y="1058" type="curve" smooth="yes"/>
      <point x="234" y="1058"/>
      <point x="148" y="1146"/>
      <point x="148" y="1270" type="curve" smooth="yes" name="sh02"/>
      <point x="148" y="1394"/>
      <point x="234" y="1482"/>
      <point x="355" y="1482" type="curve" smooth="yes"/>
      <point x="476" y="1482"/>
      <point x="563" y="1393"/>
      <point x="563" y="1270" type="curve" smooth="yes" name="ah01"/>
      <point x="563" y="1147"/>
      <point x="476" y="1058"/>
    </contour>
  </outline>
</glyph>
<glyph name="paragraph" format="1">
  <advance width="1245"/>
  <unicode hex="00B6"/>
  <outline>
    <contour>
      <point x="1060" y="-150" type="line"/>
      <point x="1060" y="1500" type="line"/>
      <point x="680" y="1500" type="line" smooth="yes"/>
      <point x="351" y="1500"/>
      <point x="165" y="1348"/>
      <point x="165" y="1080" type="curve" smooth="yes"/>
      <point x="165" y="808"/>
      <point x="358" y="654"/>
      <point x="700" y="654" type="curve"/>
      <point x="700" y="-150" type="line"/>
      <point x="744" y="-150" type="line"/>
      <point x="744" y="1458" type="line"/>
      <point x="1016" y="1458" type="line"/>
      <point x="1016" y="-150" type="line"/>
    </contour>
  </outline>
</glyph>
<glyph name="cedilla" format="1">
  <advance width="646"/>
  <unicode hex="00B8"/>
  <outline>
    <contour>
      <point x="155" y="-388" type="line"/>
      <point x="201" y="-401"/>
      <point x="244" y="-407"/>
      <point x="282" y="-407" type="curve" smooth="yes"/>
      <point x="404" y="-407"/>
      <point x="491" y="-341"/>
      <point x="491" y="-249" type="curve" smooth="yes"/>
      <point x="491" y="-159"/>
      <point x="411" y="-100"/>
      <point x="303" y="-100" type="curve"/>
      <point x="344" y="7" type="line" name="ih01"/>
      <point x="303" y="7" type="line"/>
      <point x="248" y="-135" type="line"/>
      <point x="263" y="-133"/>
      <point x="277" y="-132"/>
      <point x="290" y="-132" type="curve" smooth="yes"/>
      <point x="384" y="-132"/>
      <point x="450" y="-177"/>
      <point x="450" y="-246" type="curve" smooth="yes"/>
      <point x="450" y="-318"/>
      <point x="378" y="-369"/>
      <point x="277" y="-369" type="curve" smooth="yes"/>
      <point x="241" y="-369"/>
      <point x="203" y="-362"/>
      <point x="167" y="-349" type="curve"/>
    </contour>
  </outline>
</glyph>
<glyph name="ordmasculine" format="1">
  <advance width="920"/>
  <unicode hex="00BA"/>
  <outline>
    <contour>
      <point x="461" y="800" type="curve" smooth="yes" name="av01"/>
      <point x="665" y="800"/>
      <point x="815" y="952"/>
      <point x="815" y="1160" type="curve" smooth="yes" name="sh03"/>
      <point x="815" y="1368"/>
      <point x="666" y="1520"/>
      <point x="461" y="1520" type="curve" smooth="yes" name="at01"/>
      <point x="256" y="1520"/>
      <point x="105" y="1368"/>
      <point x="105" y="1160" type="curve" smooth="yes" name="sh01"/>
      <point x="105" y="953"/>
      <point x="256" y="800"/>
    </contour>
    <contour>
      <point x="461" y="837" type="curve" smooth="yes"/>
      <point x="279" y="837"/>
      <point x="145" y="974"/>
      <point x="145" y="1160" type="curve" smooth="yes" name="sh02"/>
      <point x="145" y="1346"/>
      <point x="279" y="1483"/>
      <point x="461" y="1483" type="curve" smooth="yes"/>
      <point x="642" y="1483"/>
      <point x="775" y="1347"/>
      <point x="775" y="1160" type="curve" smooth="yes" name="ah01"/>
      <point x="775" y="973"/>
      <point x="642" y="837"/>
    </contour>
  </outline>
</glyph>
<glyph name="onehalf" format="2">
  <advance width="1652"/>
  <unicode hex="00BD"/>
  <outline>
    <contour>
      <point x="309" y="0" type="line" name="av01"/>
      <point x="1320" y="1540" type="line" name="at01"/>
      <point x="1278" y="1540" type="line"/>
      <point x="260" y="0" type="line"/>
    </contour>
    <contour>
      <point x="354" y="780" type="line"/>
      <point x="354" y="1500" type="line"/>
      <point x="320" y="1500" type="line"/>
      <point x="155" y="1440" type="line"/>
      <point x="168" y="1404" type="line"/>
      <point x="313" y="1456" type="line"/>
      <point x="313" y="780" type="line"/>
    </contour>
    <contour>
      <point x="1497" y="0" type="line"/>
      <point x="1497" y="38" type="line"/>
      <point x="1159" y="38" type="line"/>
      <point x="1368" y="209"/>
      <point x="1481" y="377"/>
      <point x="1481" y="521" type="curve" smooth="yes"/>
      <point x="1481" y="647"/>
      <point x="1394" y="740"/>
      <point x="1274" y="740" type="curve" smooth="yes"/>
      <point x="1186" y="740"/>
      <point x="1110" y="691"/>
      <point x="1066" y="607" type="curve"/>
      <point x="1099" y="588" type="line"/>
      <point x="1143" y="663"/>
      <point x="1204" y="702"/>
      <point x="1273" y="702" type="curve" smooth="yes"/>
      <point x="1369" y="702"/>
      <point x="1439" y="623"/>
      <point x="1439" y="513" type="curve" smooth="yes"/>
      <point x="1439" y="373"/>
      <point x="1328" y="217"/>
      <point x="1087" y="19" type="curve"/>
      <point x="1087" y="0" type="line"/>
    </contour>
  </outline>
</glyph>
<glyph name="Aring" format="1">
  <advance width="1475"/>
  <unicode hex="00C5"/>
  <outline>
    <contour>
      <point x="737" y="1611" type="curve" smooth="yes"/>
      <point x="857" y="1611"/>
      <point x="936" y="1691"/>
      <point x="936" y="1811" type="curve" smooth="yes"/>
      <point x="936" y="1931"/>
      <point x="857" y="2010"/>
      <point x="737" y="2010" type="curve" smooth="yes"/>
      <point x="617" y="2010"/>
      <point x="537" y="1931"/>
      <point x="537" y="1811" type="curve" smooth="yes"/>
      <point x="537" y="1691"/>
      <point x="617" y="1611"/>
    </contour>
    <contour>
      <point x="737" y="1649" type="curve" smooth="yes"/>
      <point x="642" y="1649"/>
      <point x="579" y="1714"/>
      <point x="579" y="1811" type="curve" smooth="yes"/>
      <point x="579" y="1908"/>
      <point x="642" y="1972"/>
      <point x="737" y="1972" type="curve" smooth="yes"/>
      <point x="832" y="1972"/>
      <point x="895" y="1908"/>
      <point x="895" y="1811" type="curve" smooth="yes"/>
      <point x="895" y="1714"/>
      <point x="832" y="1649"/>
    </contour>
    <contour>
      <point x="123" y="0" type="line"/>
      <point x="329" y="488" type="line" name="dv01"/>
      <point x="1145" y="488" type="line"/>
      <point x="1352" y="0" type="line"/>
      <point x="1400" y="0" type="line"/>
      <point x="766" y="1500" type="line"/>
      <point x="709" y="1500" type="line"/>
      <point x="75" y="0" type="line"/>
    </contour>
    <contour>
      <point x="347" y="530" type="line" name="dv02"/>
      <point x="737" y="1454" type="line"/>
      <point x="1128" y="530" type="line"/>
    </contour>
  </outline>
</glyph>
<glyph name="AE" format="2">
  <advance width="2073"/>
  <unicode hex="00C6"/>
  <outline>
    <contour>
      <point x="1938" y="0" type="line"/>
      <point x="1933" y="42" type="line"/>
      <point x="1153" y="42" type="line"/>
      <point x="1056" y="747" type="line"/>
      <point x="1786" y="747" type="line"/>
      <point x="1780" y="790" type="line"/>
      <point x="1051" y="790" type="line"/>
      <point x="959" y="1458" type="line"/>
      <point x="1739" y="1458" type="line"/>
      <point x="1733" y="1500" type="line"/>
      <point x="867" y="1500" type="line"/>
      <point x="65" y="0" type="line"/>
      <point x="115" y="0" type="line"/>
      <point x="355" y="448" type="line"/>
      <point x="1053" y="448" type="line"/>
      <point x="1114" y="0" type="line"/>
    </contour>
    <contour>
      <point x="377" y="490" type="line"/>
      <point x="895" y="1458" type="line"/>
      <point x="915" y="1458" type="line"/>
      <point x="1047" y="490" type="line"/>
    </contour>
  </outline>
</glyph>
<glyph name="Egrave" format="1">
  <advance width="1240"/>
  <unicode hex="00C8"/>
  <outline>
    <contour>
      <point x="659" y="1670" type="line"/>
      <point x="487" y="2000" type="line"/>
      <point x="434" y="2000" type="line"/>
      <point x="625" y="1670" type="line"/>
    </contour>
    <contour>
      <point x="185" y="0" type="line"/>
      <point x="1065" y="0" type="line"/>
      <point x="1065" y="42" type="line"/>
      <point x="229" y="42" type="line"/>
      <point x="229" y="748" type="line"/>
      <point x="1014" y="748" type="line"/>
      <point x="1014" y="790" type="line"/>
      <point x="229" y="790" type="line"/>
      <point x="229" y="1458" type="line"/>
      <point x="1055" y="1458" type="line"/>
      <point x="1055" y="1500" type="line"/>
      <point x="185" y="1500" type="line"/>
    </contour>
  </outline>
</glyph>
<glyph name="Eacute" format="1">
  <advance width="1240"/>
  <unicode hex="00C9"/>
  <outline>
    <contour>
      <point x="628" y="1670" type="line"/>
      <point x="819" y="2000" type="line"/>
      <point x="766" y="2000" type="line"/>
      <point x="594" y="1670" type="line"/>
    </contour>
    <contour>
      <point x="185" y="0" type="line"/>
      <point x="1065" y="0" type="line"/>
      <point x="1065" y="42" type="line"/>
      <point x="229" y="42" type="line"/>
      <point x="229" y="748" type="line"/>
      <point x="1014" y="748" type="line"/>
      <point x="1014" y="790" type="line"/>
      <point x="229" y="790" type="line"/>
      <point x="229" y="1458" type="line"/>
      <point x="1055" y="1458" type="line"/>
      <point x="1055" y="1500" type="line"/>
      <point x="185" y="1500" type="line"/>
    </contour>
  </outline>
</glyph>
<glyph name="Ntilde" format="1">
  <advance width="1609"/>
  <unicode hex="00D1"/>
  <outline>
    <contour>
      <point x="1102" y="1926" type="curve"/>
      <point x="1061" y="1926" type="line"/>
      <point x="1046" y="1852"/>
      <point x="1006" y="1813"/>
      <point x="945" y="1813" type="curve" smooth="yes"/>
      <point x="894" y="1813"/>
      <point x="860" y="1841"/>
      <point x="824" y="1871" type="curve" smooth="yes"/>
      <point x="785" y="1903"/>
      <point x="743" y="1937"/>
      <point x="676" y="1937" type="curve" smooth="yes"/>
      <point x="592" y="1937"/>
      <point x="536" y="1884"/>
      <point x="517" y="1785" type="curve"/>
      <point x="558" y="1785" type="line"/>
      <point x="573" y="1859"/>
      <point x="616" y="1900"/>
      <point x="676" y="1900" type="curve" smooth="yes"/>
      <point x="726" y="1900"/>
      <point x="760" y="1871"/>
      <point x="796" y="1841" type="curve" smooth="yes"/>
      <point x="840" y="1804"/>
      <point x="879" y="1775"/>
      <point x="939" y="1775" type="curve" smooth="yes"/>
      <point x="1022" y="1775"/>
      <point x="1084" y="1832"/>
    </contour>
    <contour>
      <point x="1424" y="0" type="line"/>
      <point x="1424" y="1500" type="line"/>
      <point x="1380" y="1500" type="line"/>
      <point x="1380" y="56" type="line"/>
      <point x="242" y="1500" type="line"/>
      <point x="185" y="1500" type="line"/>
      <point x="185" y="0" type="line"/>
      <point x="229" y="0" type="line"/>
      <point x="229" y="1444" type="line"/>
      <point x="1367" y="0" type="line"/>
    </contour>
  </outline>
</glyph>
<glyph name="multiply" format="1">
  <advance width="1099"/>
  <unicode hex="00D7"/>
  <outline>
    <contour>
      <point x="896" y="131" type="line"/>
      <point x="924" y="159" type="line"/>
      <point x="577" y="506" type="line"/>
      <point x="924" y="852" type="line"/>
      <point x="896" y="880" type="line"/>
      <point x="549" y="534" type="line"/>
      <point x="203" y="880" type="line"/>
      <point x="175" y="852" type="line"/>
      <point x="521" y="506" type="line"/>
      <point x="175" y="159" type="line"/>
      <point x="203" y="131" type="line"/>
      <point x="549" y="478" type="line"/>
    </contour>
  </outline>
</glyph>
<glyph name="Oslash" format="2">
  <advance width="1750"/>
  <unicode hex="00D8"/>
  <outline>
    <contour>
      <point x="566" y="-50" type="line" name="av01"/>
      <point x="594" y="18" type="line"/>
      <point x="680" y="-13"/>
      <point x="775" y="-30"/>
      <point x="876" y="-30" type="curve" smooth="yes"/>
      <point x="1320" y="-30"/>
      <point x="1645" y="300"/>
      <point x="1645" y="750" type="curve" smooth="yes"/>
      <point x="1645" y="1084"/>
      <point x="1467" y="1351"/>
      <point x="1195" y="1467" type="curve"/>
      <point x="1223" y="1535" type="line" name="at01"/>
      <point x="1186" y="1550" type="line"/>
      <point x="1157" y="1482" type="line"/>
      <point x="1071" y="1513"/>
      <point x="977" y="1530"/>
      <point x="876" y="1530" type="curve" smooth="yes"/>
      <point x="430" y="1530"/>
      <point x="105" y="1201"/>
      <point x="105" y="750" type="curve" smooth="yes"/>
      <point x="105" y="416"/>
      <point x="284" y="149"/>
      <point x="557" y="33" type="curve"/>
      <point x="528" y="-35" type="line"/>
    </contour>
    <contour>
      <point x="573" y="72" type="line"/>
      <point x="317" y="182"/>
      <point x="150" y="435"/>
      <point x="150" y="750" type="curve" smooth="yes"/>
      <point x="150" y="1176"/>
      <point x="456" y="1488"/>
      <point x="875" y="1488" type="curve" smooth="yes"/>
      <point x="970" y="1488"/>
      <point x="1060" y="1472"/>
      <point x="1141" y="1442" type="curve"/>
    </contour>
    <contour>
      <point x="875" y="12" type="curve" smooth="yes"/>
      <point x="780" y="12"/>
      <point x="691" y="28"/>
      <point x="610" y="58" type="curve"/>
      <point x="1178" y="1427" type="line"/>
      <point x="1433" y="1316"/>
      <point x="1600" y="1063"/>
      <point x="1600" y="750" type="curve" smooth="yes"/>
      <point x="1600" y="325"/>
      <point x="1294" y="12"/>
    </contour>
  </outline>
</glyph>
<glyph name="igrave" format="1">
  <advance width="412"/>
  <unicode hex="00EC"/>
  <outline>
    <contour>
      <point x="229" y="1170" type="line"/>
      <point x="57" y="1500" type="line"/>
      <point x="4" y="1500" type="line"/>
      <point x="194" y="1170" type="line"/>
    </contour>
    <contour>
      <point x="227" y="0" type="line"/>
      <point x="227" y="1000" type="line"/>
      <point x="186" y="1000" type="line"/>
      <point x="186" y="0" type="line"/>
    </contour>
  </outline>
</glyph>
<glyph name="ocircumflex" format="1">
  <advance width="1230"/>
  <unicode hex="00F4"/>
  <outline>
    <contour>
      <point x="852" y="1170" type="line"/>
      <point x="647" y="1500" type="line" name="at01"/>
      <point x="590" y="1500" type="line" name="at01.1"/>
      <point x="385" y="1170" type="line"/>
      <point x="419" y="1170" type="line" name="av01"/>
      <point x="619" y="1466" type="line"/>
      <point x="818" y="1170" type="line" name="av01.1"/>
    </contour>
    <contour>
      <point x="616" y="-20" type="curve" smooth="yes"/>
      <point x="905" y="-20"/>
      <point x="1125" y="205"/>
      <point x="1125" y="500" type="curve" smooth="yes"/>
      <point x="1125" y="795"/>
      <point x="905" y="1020"/>
      <point x="616" y="1020" type="curve" smooth="yes"/>
      <point x="326" y="1020"/>
      <point x="105" y="796"/>
      <point x="105" y="500" type="curve" smooth="yes"/>
      <point x="105" y="204"/>
      <point x="326" y="-20"/>
    </contour>
    <contour>
      <point x="616" y="18" type="curve" smooth="yes"/>
      <point x="349" y="18"/>
      <point x="147" y="226"/>
      <point x="147" y="500" type="curve" smooth="yes"/>
      <point x="147" y="774"/>
      <point x="349" y="982"/>
      <point x="616" y="982" type="curve" smooth="yes"/>
      <point x="881" y="982"/>
      <point x="1083" y="774"/>
      <point x="1083" y="500" type="curve" smooth="yes"/>
      <point x="1083" y="226"/>
      <point x="881" y="18"/>
    </contour>
  </outline>
</glyph>
<glyph name="oslash" format="1">
  <advance width="1230"/>
  <unicode hex="00F8"/>
  <outline>
    <contour>
      <point x="405" y="-59" type="line" name="av01"/>
      <point x="434" y="12" type="line"/>
      <point x="490" y="-9"/>
      <point x="552" y="-20"/>
      <point x="616" y="-20" type="curve" smooth="yes"/>
      <point x="905" y="-20"/>
      <point x="1125" y="205"/>
      <point x="1125" y="500" type="curve" smooth="yes"/>
      <point x="1125" y="715"/>
      <point x="1008" y="893"/>
      <point x="833" y="974" type="curve"/>
      <point x="862" y="1044" type="line" name="at01"/>
      <point x="824" y="1059" type="line"/>
      <point x="795" y="989" type="line"/>
      <point x="740" y="1009"/>
      <point x="680" y="1020"/>
      <point x="616" y="1020" type="curve" smooth="yes"/>
      <point x="326" y="1020"/>
      <point x="105" y="796"/>
      <point x="105" y="500" type="curve" smooth="yes"/>
      <point x="105" y="285"/>
      <point x="222" y="108"/>
      <point x="398" y="27" type="curve"/>
      <point x="368" y="-45" type="line"/>
    </contour>
    <contour>
      <point x="413" y="63" type="line"/>
      <point x="253" y="138"/>
      <point x="147" y="302"/>
      <point x="147" y="500" type="curve" smooth="yes"/>
      <point x="147" y="774"/>
      <point x="349" y="982"/>
      <point x="616" y="982" type="curve" smooth="yes"/>
      <point x="674" y="982"/>
      <point x="729" y="972"/>
      <point x="780" y="953" type="curve"/>
    </contour>
    <contour>
      <point x="616" y="18" type="curve" smooth="yes"/>
      <point x="557" y="18"/>
      <point x="500" y="28"/>
      <point x="449" y="47" type="curve"/>
      <point x="818" y="938" type="line"/>
      <point x="977" y="863"/>
      <point x="1083" y="698"/>
      <point x="1083" y="500" type="curve" smooth="yes"/>
      <point x="1083" y="226"/>
      <point x="881" y="18"/>
    </contour>
  </outline>
</glyph>
<glyph name="ucircumflex" format="1">
  <advance width="1192"/>
  <unicode hex="00FB"/>
  <outline>
    <contour>
      <point x="830" y="1170" type="line"/>
      <point x="625" y="1500" type="line" name="at01"/>
      <point x="568" y="1500" type="line" name="at01.1"/>
      <point x="363" y="1170" type="line"/>
      <point x="397" y="1170" type="line" name="av01"/>
      <point x="597" y="1466" type="line"/>
      <point x="796" y="1170" type="line" name="av01.1"/>
    </contour>
    <contour>
      <point x="1007" y="0" type="line"/>
      <point x="1007" y="1000" type="line"/>
      <point x="966" y="1000" type="line"/>
      <point x="966" y="437" type="line" smooth="yes"/>
      <point x="966" y="178"/>
      <point x="819" y="18"/>
      <point x="582" y="18" type="curve" smooth="yes"/>
      <point x="346" y="18"/>
      <point x="206" y="174"/>
      <point x="206" y="437" type="curve" smooth="yes"/>
      <point x="206" y="1000" type="line"/>
      <point x="165" y="1000" type="line"/>
      <point x="165" y="437" type="line" smooth="yes"/>
      <point x="165" y="149"/>
      <point x="319" y="-20"/>
      <point x="583" y="-20" type="curve" smooth="yes"/>
      <point x="771" y="-20"/>
      <point x="905" y="67"/>
      <point x="968" y="235" type="curve"/>
      <point x="968" y="0" type="line"/>
    </contour>
  </outline>
</glyph>
<glyph name="thorn" format="2">
  <advance width="1308"/>
  <unicode hex="00FE"/>
  <outline>
    <contour>
      <point x="226" y="-500" type="line"/>
      <point x="226" y="282" type="line"/>
      <point x="300" y="92"/>
      <point x="479" y="-20"/>
      <point x="688" y="-20" type="curve" smooth="yes"/>
      <point x="985" y="-20"/>
      <point x="1203" y="205"/>
      <point x="1203" y="500" type="curve" smooth="yes"/>
      <point x="1203" y="795"/>
      <point x="985" y="1020"/>
      <point x="688" y="1020" type="curve" smooth="yes"/>
      <point x="479" y="1020"/>
      <point x="300" y="908"/>
      <point x="226" y="718" type="curve"/>
      <point x="226" y="1500" type="line"/>
      <point x="185" y="1500" type="line"/>
      <point x="185" y="-500" type="line"/>
    </contour>
    <contour>
      <point x="693" y="18" type="curve" smooth="yes"/>
      <point x="438" y="18"/>
      <point x="226" y="209"/>
      <point x="226" y="467" type="curve" smooth="yes"/>
      <point x="226" y="533" type="line" smooth="yes"/>
      <point x="226" y="791"/>
      <point x="438" y="982"/>
      <point x="693" y="982" type="curve" smooth="yes"/>
      <point x="959" y="982"/>
      <point x="1161" y="774"/>
      <point x="1161" y="500" type="curve" smooth="yes"/>
      <point x="1161" y="226"/>
      <point x="959" y="18"/>
    </contour>
  </outline>
</glyph>
<glyph name="Aogonek" format="1">
  <advance width="1475"/>
  <unicode hex="0104"/>
  <outline>
    <contour>
      <point x="124" y="0" type="line"/>
      <point x="330" y="488" type="line" name="dv01"/>
      <point x="1146" y="488" type="line"/>
      <point x="1353" y="0" type="line"/>
      <point x="1357" y="0" type="line" name="ab01"/>
      <point x="1242" y="-52"/>
      <point x="1171" y="-146"/>
      <point x="1171" y="-243" type="curve" smooth="yes"/>
      <point x="1171" y="-337"/>
      <point x="1238" y="-416"/>
      <point x="1360" y="-416" type="curve" name="av01"/>
      <point x="1360" y="-379" type="line"/>
      <point x="1256" y="-370"/>
      <point x="1212" y="-312"/>
      <point x="1212" y="-243" type="curve" smooth="yes"/>
      <point x="1212" y="-155"/>
      <point x="1284" y="-48"/>
      <point x="1389" y="0" type="curve"/>
      <point x="1400" y="0" type="line"/>
      <point x="766" y="1500" type="line"/>
      <point x="709" y="1500" type="line"/>
      <point x="75" y="0" type="line"/>
    </contour>
    <contour>
      <point x="348" y="530" type="line" name="dv02"/>
      <point x="738" y="1454" type="line"/>
      <point x="1129" y="530" type="line"/>
    </contour>
  </outline>
</glyph>
<glyph name="Dcaron" format="1">
  <advance width="1547"/>
  <unicode hex="010E"/>
  <outline>
    <contour>
      <point x="742" y="1670" type="line" name="at01"/>
      <point x="947" y="2000" type="line"/>
      <point x="913" y="2000" type="line" name="av01"/>
      <point x="714" y="1704" type="line"/>
      <point x="514" y="2000" type="line" name="av01.1"/>
      <point x="480" y="2000" type="line"/>
      <point x="685" y="1670" type="line" name="at01.1"/>
    </contour>
    <contour>
      <point x="185" y="0" type="line"/>
      <point x="558" y="0" type="line" smooth="yes"/>
      <point x="1117" y="0"/>
      <point x="1442" y="275"/>
      <point x="1442" y="750" type="curve" smooth="yes"/>
      <point x="1442" y="1225"/>
      <point x="1117" y="1500"/>
      <point x="558" y="1500" type="curve" smooth="yes"/>
      <point x="185" y="1500" type="line"/>
    </contour>
    <contour>
      <point x="229" y="42" type="line"/>
      <point x="229" y="1458" type="line"/>
      <point x="563" y="1458" type="line" smooth="yes"/>
      <point x="1088" y="1458"/>
      <point x="1397" y="1195"/>
      <point x="1397" y="750" type="curve" smooth="yes"/>
      <point x="1397" y="305"/>
      <point x="1088" y="42"/>
      <point x="563" y="42" type="curve" smooth="yes"/>
    </contour>
  </outline>
</glyph>
<glyph name="dcaron" format="2">
  <advance width="1757"/>
  <unicode hex="010F"/>
  <outline>
    <contour>
      <point x="1514" y="1070" type="line"/>
      <point x="1627" y="1520" type="line"/>
      <point x="1584" y="1520" type="line" name="av01"/>
      <point x="1483" y="1070" type="line"/>
    </contour>
    <component base="d"/>
  </outline>
</glyph>
<glyph name="Emacron" format="1">
  <advance width="1240"/>
  <unicode hex="0112"/>
  <outline>
    <contour>
      <point x="935" y="1832" type="line" name="av02"/>
      <point x="935" y="1870" type="line"/>
      <point x="315" y="1870" type="line" name="av01"/>
      <point x="315" y="1832" type="line"/>
    </contour>
    <contour>
      <point x="185" y="0" type="line"/>
      <point x="1065" y="0" type="line"/>
      <point x="1065" y="42" type="line"/>
      <point x="229" y="42" type="line"/>
      <point x="229" y="748" type="line"/>
      <point x="1014" y="748" type="line"/>
      <point x="1014" y="790" type="line"/>
      <point x="229" y="790" type="line"/>
      <point x="229" y="1458" type="line"/>
      <point x="1055" y="1458" type="line"/>
      <point x="1055" y="1500" type="line"/>
      <point x="185" y="1500" type="line"/>
    </contour>
  </outline>
</glyph>
<glyph name="Ecaron" format="1">
  <advance width="1240"/>
  <unicode hex="011A"/>
  <outline>
    <contour>
      <point x="663" y="1670" type="line" name="at01"/>
      <point x="868" y="2000" type="line"/>
      <point x="834" y="2000" type="line" name="av01"/>
      <point x="635" y="1704" type="line"/>
      <point x="436" y="2000" type="line" name="av01.1"/>
      <point x="401" y="2000" type="line"/>
      <point x="606" y="1670" type="line" name="at01.1"/>
    </contour>
    <contour>
      <point x="185" y="0" type="line"/>
      <point x="1065" y="0" type="line"/>
      <point x="1065" y="42" type="line"/>
      <point x="229" y="42" type="line"/>
      <point x="229" y="748" type="line"/>
      <point x="1014" y="748" type="line"/>
      <point x="1014" y="790" type="line"/>
      <point x="229" y="790" type="line"/>
      <point x="229" y="1458" type="line"/>
      <point x="1055" y="1458" type="line"/>
      <point x="1055" y="1500" type="line"/>
      <point x="185" y="1500" type="line"/>
    </contour>
  </outline>
</glyph>
<glyph name="gcircumflex" format="1">
  <advance width="1259"/>
  <unicode hex="011D"/>
  <outline>
    <contour>
      <point x="863" y="1170" type="line"/>
      <point x="658" y="1500" type="line" name="at01"/>
      <point x="601" y="1500" type="line" name="at01.1"/>
      <point x="396" y="1170" type="line"/>
      <point x="430" y="1170" type="line" name="av01"/>
      <point x="630" y="1466" type="line"/>
      <point x="829" y="1170" type="line" name="av01.1"/>
    </contour>
    <contour>
      <point x="592" y="20" type="curve" smooth="yes"/>
      <point x="800" y="20"/>
      <point x="971" y="140"/>
      <point x="1043" y="321" type="curve"/>
      <point x="1043" y="19" type="line" smooth="yes"/>
      <point x="1043" y="-293"/>
      <point x="872" y="-482"/>
      <point x="589" y="-482" type="curve" smooth="yes"/>
      <point x="443" y="-482"/>
      <point x="323" y="-432"/>
      <point x="228" y="-330" type="curve"/>
      <point x="199" y="-359" type="line"/>
      <point x="304" y="-470"/>
      <point x="423" y="-520"/>
      <point x="581" y="-520" type="curve" smooth="yes"/>
      <point x="898" y="-520"/>
      <point x="1084" y="-318"/>
      <point x="1084" y="23" type="curve" smooth="yes"/>
      <point x="1084" y="1000" type="line"/>
      <point x="1044" y="1000" type="line"/>
      <point x="1044" y="717" type="line"/>
      <point x="972" y="898"/>
      <point x="802" y="1020"/>
      <point x="594" y="1020" type="curve" smooth="yes"/>
      <point x="316" y="1020"/>
      <point x="105" y="804"/>
      <point x="105" y="520" type="curve" smooth="yes"/>
      <point x="105" y="236"/>
      <point x="316" y="20"/>
    </contour>
    <contour>
      <point x="594" y="58" type="curve" smooth="yes"/>
      <point x="340" y="58"/>
      <point x="147" y="257"/>
      <point x="147" y="520" type="curve" smooth="yes"/>
      <point x="147" y="783"/>
      <point x="341" y="982"/>
      <point x="596" y="982" type="curve" smooth="yes"/>
      <point x="839" y="982"/>
      <point x="1025" y="802"/>
      <point x="1043" y="558" type="curve"/>
      <point x="1043" y="482" type="line"/>
      <point x="1025" y="238"/>
      <point x="837" y="58"/>
    </contour>
  </outline>
</glyph>
<glyph name="itilde" format="1">
  <advance width="412"/>
  <unicode hex="0129"/>
  <outline>
    <contour>
      <point x="498" y="1426" type="curve"/>
      <point x="458" y="1426" type="line"/>
      <point x="443" y="1352"/>
      <point x="403" y="1313"/>
      <point x="342" y="1313" type="curve" smooth="yes"/>
      <point x="291" y="1313"/>
      <point x="256" y="1341"/>
      <point x="220" y="1371" type="curve" smooth="yes"/>
      <point x="181" y="1403"/>
      <point x="139" y="1437"/>
      <point x="72" y="1437" type="curve" smooth="yes"/>
      <point x="-12" y="1437"/>
      <point x="-67" y="1384"/>
      <point x="-86" y="1285" type="curve"/>
      <point x="-45" y="1285" type="line"/>
      <point x="-30" y="1359"/>
      <point x="12" y="1400"/>
      <point x="72" y="1400" type="curve" smooth="yes"/>
      <point x="122" y="1400"/>
      <point x="157" y="1371"/>
      <point x="193" y="1341" type="curve" smooth="yes"/>
      <point x="237" y="1304"/>
      <point x="276" y="1275"/>
      <point x="336" y="1275" type="curve" smooth="yes"/>
      <point x="419" y="1275"/>
      <point x="480" y="1332"/>
    </contour>
    <contour>
      <point x="227" y="0" type="line"/>
      <point x="227" y="1000" type="line"/>
      <point x="186" y="1000" type="line"/>
      <point x="186" y="0" type="line"/>
    </contour>
  </outline>
</glyph>
<glyph name="Imacron" format="1">
  <advance width="414"/>
  <unicode hex="012A"/>
  <outline>
    <contour>
      <point x="517" y="1832" type="line" name="av02"/>
      <point x="-103" y="1832" type="line"/>
      <point x="-103" y="1870" type="line" name="av01"/>
      <point x="517" y="1870" type="line"/>
    </contour>
    <contour>
      <point x="229" y="1500" type="line" name="at01"/>
      <point x="229" y="0" type="line" name="ab01"/>
      <point x="185" y="0" type="line" name="dh01"/>
      <point x="185" y="1500" type="line"/>
    </contour>
  </outline>
</glyph>
<glyph name="Iogonek" format="1">
  <advance width="415"/>
  <unicode hex="012E"/>
  <outline>
    <contour>
      <point x="230" y="1500" type="line" name="at01"/>
      <point x="230" y="0" type="line" name="ab01"/>
      <point x="223" y="0" type="line"/>
      <point x="118" y="-48"/>
      <point x="46" y="-155"/>
      <point x="46" y="-243" type="curve" smooth="yes"/>
      <point x="46" y="-312"/>
      <point x="90" y="-369"/>
      <point x="194" y="-378" type="curve"/>
      <point x="194" y="-416" type="line" name="av01"/>
      <point x="72" y="-416"/>
      <point x="5" y="-337"/>
      <point x="5" y="-243" type="curve" smooth="yes"/>
      <point x="5" y="-146"/>
      <point x="76" y="-52"/>
      <point x="191" y="0" type="curve" name="ab01.1"/>
      <point x="186" y="0" type="line" name="dh01"/>
      <point x="186" y="1500" type="line"/>
    </contour>
  </outline>
</glyph>
<glyph name="iogonek" format="1">
  <advance width="450"/>
  <unicode hex="012F"/>
  <outline>
    <contour>
      <point x="224" y="1420" type="curve" smooth="yes"/>
      <point x="252" y="1420"/>
      <point x="275" y="1442"/>
      <point x="275" y="1470" type="curve" smooth="yes"/>
      <point x="275" y="1498"/>
      <point x="252" y="1520"/>
      <point x="224" y="1520" type="curve" smooth="yes"/>
      <point x="196" y="1520"/>
      <point x="175" y="1498"/>
      <point x="175" y="1470" type="curve" smooth="yes"/>
      <point x="175" y="1442"/>
      <point x="196" y="1420"/>
    </contour>
    <contour>
      <point x="245" y="0" type="line"/>
      <point x="245" y="1000" type="line"/>
      <point x="204" y="1000" type="line"/>
      <point x="204" y="0" type="line"/>
      <point x="207.447" y="0" type="line" name="ab01"/>
      <point x="92.7514" y="-51.9083"/>
      <point x="21.5" y="-145.545"/>
      <point x="21.5" y="-243" type="curve" smooth="yes"/>
      <point x="21.5" y="-337"/>
      <point x="88.5" y="-416"/>
      <point x="210.5" y="-416" type="curve" name="av01"/>
      <point x="210.5" y="-379" type="line"/>
      <point x="106.5" y="-370"/>
      <point x="62.5" y="-312"/>
      <point x="62.5" y="-243" type="curve" smooth="yes"/>
      <point x="62.5" y="-154.585"/>
      <point x="134.247" y="-47.2976"/>
      <point x="239.212" y="0" type="curve"/>
    </contour>
  </outline>
</glyph>
<glyph name="idotless" format="2">
  <advance width="411"/>
  <unicode hex="0131"/>
  <anchor x="206" y="0" name="bottom"/>
  <anchor x="226" y="0" name="ogonek"/>
  <anchor x="206" y="1000" name="top"/>
  <outline>
    <contour>
      <point x="226" y="0" type="line"/>
      <point x="226" y="1000" type="line"/>
      <point x="185" y="1000" type="line"/>
      <point x="185" y="0" type="line"/>
    </contour>
  </outline>
</glyph>
<glyph name="Jcircumflex" format="1">
  <advance width="441"/>
  <unicode hex="0134"/>
  <outline>
    <contour>
      <point x="471" y="1670" type="line"/>
      <point x="266" y="2000" type="line" name="at01"/>
      <point x="209" y="2000" type="line" name="at01.1"/>
      <point x="4" y="1670" type="line"/>
      <point x="38" y="1670" type="line" name="av01"/>
      <point x="238" y="1966" type="line"/>
      <point x="437" y="1670" type="line" name="av01.1"/>
    </contour>
    <contour>
      <point x="-165" y="-397" type="line"/>
      <point x="118" y="-397"/>
      <point x="256" y="-258"/>
      <point x="256" y="27" type="curve" smooth="yes"/>
      <point x="256" y="1500" type="line"/>
      <point x="212" y="1500" type="line"/>
      <point x="212" y="14" type="line" smooth="yes"/>
      <point x="212" y="-229"/>
      <point x="84" y="-355"/>
      <point x="-165" y="-355" type="curve"/>
    </contour>
  </outline>
</glyph>
<glyph name="Lacute" format="1">
  <advance width="1150"/>
  <unicode hex="0139"/>
  <outline>
    <contour>
      <point x="220" y="1670" type="line"/>
      <point x="411" y="2000" type="line"/>
      <point x="358" y="2000" type="line"/>
      <point x="186" y="1670" type="line"/>
    </contour>
    <contour>
      <point x="1045" y="0" type="line"/>
      <point x="1045" y="42" type="line"/>
      <point x="229" y="42" type="line"/>
      <point x="229" y="1500" type="line"/>
      <point x="185" y="1500" type="line"/>
      <point x="185" y="0" type="line"/>
    </contour>
  </outline>
</glyph>
<glyph name="uni013C" format="1">
  <advance width="412"/>
  <unicode hex="013C"/>
  <outline>
    <contour>
      <point x="226" y="0" type="line"/>
      <point x="226" y="1540" type="line" name="av01"/>
      <point x="186" y="1540" type="line" name="dh01"/>
      <point x="186" y="0" type="line" name="ab01"/>
    </contour>
    <contour>
      <point x="104" y="-442" type="line"/>
      <point x="191" y="-396"/>
      <point x="248" y="-296"/>
      <point x="248" y="-187" type="curve" smooth="yes"/>
      <point x="248" y="-149"/>
      <point x="241" y="-113"/>
      <point x="228" y="-78" type="curve"/>
      <point x="192" y="-90" type="line"/>
      <point x="205" y="-121"/>
      <point x="211" y="-154"/>
      <point x="211" y="-187" type="curve" smooth="yes"/>
      <point x="211" y="-276"/>
      <point x="166" y="-367"/>
      <point x="88" y="-418" type="curve"/>
    </contour>
  </outline>
</glyph>
<glyph name="Ldot" format="1">
  <advance width="1150"/>
  <unicode hex="013F"/>
  <outline>
    <contour>
      <point x="1045" y="0" type="line"/>
      <point x="1045" y="42" type="line"/>
      <point x="229" y="42" type="line"/>
      <point x="229" y="1500" type="line"/>
      <point x="185" y="1500" type="line"/>
      <point x="185" y="0" type="line"/>
    </contour>
    <contour>
      <point x="715" y="700" type="curve" smooth="yes"/>
      <point x="743.571" y="700"/>
      <point x="765" y="721.429"/>
      <point x="765" y="750" type="curve" smooth="yes"/>
      <point x="765" y="777.381"/>
      <point x="743.571" y="800"/>
      <point x="715" y="800" type="curve" smooth="yes"/>
      <point x="686.429" y="800"/>
      <point x="665" y="777.381"/>
      <point x="665" y="750" type="curve" smooth="yes"/>
      <point x="665" y="721.429"/>
      <point x="686.429" y="700"/>
    </contour>
  </outline>
</glyph>
<glyph name="ldot" format="1">
  <advance width="612"/>
  <unicode hex="0140"/>
  <outline>
    <contour>
      <point x="225" y="0" type="line"/>
      <point x="225" y="1540" type="line" name="av01"/>
      <point x="185" y="1540" type="line" name="dh01"/>
      <point x="185" y="0" type="line" name="ab01"/>
    </contour>
    <contour>
      <point x="517" y="720" type="curve" smooth="yes"/>
      <point x="545.571" y="720"/>
      <point x="567" y="741.429"/>
      <point x="567" y="770" type="curve" smooth="yes"/>
      <point x="567" y="797.381"/>
      <point x="545.571" y="820"/>
      <point x="517" y="820" type="curve" smooth="yes"/>
      <point x="488.429" y="820"/>
      <point x="467" y="797.381"/>
      <point x="467" y="770" type="curve" smooth="yes"/>
      <point x="467" y="741.429"/>
      <point x="488.429" y="720"/>
    </contour>
  </outline>
</glyph>
<glyph name="nacute" format="1">
  <advance width="1222"/>
  <unicode hex="0144"/>
  <outline>
    <contour>
      <point x="597" y="1170" type="line"/>
      <point x="788" y="1500" type="line"/>
      <point x="735" y="1500" type="line"/>
      <point x="563" y="1170" type="line"/>
    </contour>
    <contour>
      <point x="1047" y="0" type="line"/>
      <point x="1047" y="563" type="line" smooth="yes"/>
      <point x="1047" y="851"/>
      <point x="890" y="1020"/>
      <point x="622" y="1020" type="curve" smooth="yes"/>
      <point x="426" y="1020"/>
      <point x="289" y="930"/>
      <point x="226" y="760" type="curve"/>
      <point x="226" y="1000" type="line"/>
      <point x="185" y="1000" type="line"/>
      <point x="185" y="0" type="line"/>
      <point x="226" y="0" type="line"/>
      <point x="226" y="563" type="line" smooth="yes"/>
      <point x="226" y="822"/>
      <point x="377" y="982"/>
      <point x="621" y="982" type="curve" smooth="yes"/>
      <point x="862" y="982"/>
      <point x="1006" y="826"/>
      <point x="1006" y="563" type="curve" smooth="yes"/>
      <point x="1006" y="0" type="line"/>
    </contour>
  </outline>
</glyph>
<glyph name="Ncaron" format="1">
  <advance width="1609"/>
  <unicode hex="0147"/>
  <outline>
    <contour>
      <point x="833" y="1670" type="line" name="at01"/>
      <point x="1038" y="2000" type="line"/>
      <point x="1004" y="2000" type="line" name="av01"/>
      <point x="805" y="1704" type="line"/>
      <point x="605" y="2000" type="line" name="av01.1"/>
      <point x="571" y="2000" type="line"/>
      <point x="776" y="1670" type="line" name="at01.1"/>
    </contour>
    <contour>
      <point x="1424" y="0" type="line"/>
      <point x="1424" y="1500" type="line"/>
      <point x="1380" y="1500" type="line"/>
      <point x="1380" y="56" type="line"/>
      <point x="242" y="1500" type="line"/>
      <point x="185" y="1500" type="line"/>
      <point x="185" y="0" type="line"/>
      <point x="229" y="0" type="line"/>
      <point x="229" y="1444" type="line"/>
      <point x="1367" y="0" type="line"/>
    </contour>
  </outline>
</glyph>
<glyph name="napostrophe" format="2">
  <advance width="1222"/>
  <unicode hex="0149"/>
  <anchor x="651" y="0" name="bottom"/>
  <anchor x="631" y="1000" name="top"/>
  <outline>
    <contour>
      <point x="201" y="1156" type="line"/>
      <point x="288" y="1202"/>
      <point x="344" y="1302"/>
      <point x="344" y="1411" type="curve" smooth="yes"/>
      <point x="344" y="1449"/>
      <point x="338" y="1485"/>
      <point x="325" y="1520" type="curve"/>
      <point x="289" y="1508" type="line"/>
      <point x="302" y="1478"/>
      <point x="308" y="1444"/>
      <point x="308" y="1411" type="curve" smooth="yes"/>
      <point x="308" y="1322"/>
      <point x="263" y="1231"/>
      <point x="185" y="1180" type="curve"/>
    </contour>
    <component base="n"/>
  </outline>
</glyph>
<glyph name="Eng" format="2">
  <advance width="1609"/>
  <unicode hex="014A"/>
  <outline>
    <contour>
      <point x="1003" y="-360" type="line"/>
      <point x="1285.99" y="-360"/>
      <point x="1424" y="-221.008"/>
      <point x="1424" y="64" type="curve" smooth="yes"/>
      <point x="1424" y="1500" type="line"/>
      <point x="1380" y="1500" type="line"/>
      <point x="1380" y="124.655" type="line"/>
      <point x="1381.37" y="53.812" type="line"/>
      <point x="1378.72" y="53.397" type="line"/>
      <point x="1366.69" y="70.077"/>
      <point x="1261.32" y="206.591"/>
      <point x="1220.3" y="258.642" type="curve" smooth="yes"/>
      <point x="242" y="1500" type="line"/>
      <point x="185" y="1500" type="line"/>
      <point x="185" y="0" type="line"/>
      <point x="229" y="0" type="line"/>
      <point x="229" y="1406.96" type="line"/>
      <point x="226" y="1447.6" type="line"/>
      <point x="229.599" y="1448.89" type="line"/>
      <point x="253.744" y="1412.6" type="line"/>
      <point x="1225.47" y="179.572" type="line" smooth="yes"/>
      <point x="1249.84" y="148.655"/>
      <point x="1325.44" y="56.909"/>
      <point x="1379" y="-8.942" type="curve"/>
      <point x="1358.97" y="-212.588"/>
      <point x="1230.73" y="-318"/>
      <point x="1003" y="-318" type="curve"/>
    </contour>
  </outline>
</glyph>
<glyph name="Obreve" format="1">
  <advance width="1750"/>
  <unicode hex="014E"/>
  <outline>
    <contour>
      <point x="1175" y="2000" type="curve" name="at01"/>
      <point x="1132" y="2000" type="line" name="ah01"/>
      <point x="1132" y="1847"/>
      <point x="1022" y="1732"/>
      <point x="875" y="1732" type="curve" smooth="yes"/>
      <point x="728" y="1732"/>
      <point x="619" y="1847"/>
      <point x="619" y="2000" type="curve" name="sh01"/>
      <point x="575" y="2000" type="line" name="at02"/>
      <point x="575" y="1826"/>
      <point x="702" y="1694"/>
      <point x="875" y="1694" type="curve" smooth="yes" name="av01"/>
      <point x="1048" y="1694"/>
      <point x="1175" y="1826"/>
    </contour>
    <contour>
      <point x="876" y="-30" type="curve" smooth="yes"/>
      <point x="1320" y="-30"/>
      <point x="1645" y="300"/>
      <point x="1645" y="750" type="curve" smooth="yes"/>
      <point x="1645" y="1201"/>
      <point x="1320" y="1530"/>
      <point x="876" y="1530" type="curve" smooth="yes"/>
      <point x="430" y="1530"/>
      <point x="105" y="1201"/>
      <point x="105" y="750" type="curve" smooth="yes"/>
      <point x="105" y="299"/>
      <point x="430" y="-30"/>
    </contour>
    <contour>
      <point x="875" y="12" type="curve" smooth="yes"/>
      <point x="456" y="12"/>
      <point x="150" y="324"/>
      <point x="150" y="750" type="curve" smooth="yes"/>
      <point x="150" y="1176"/>
      <point x="456" y="1488"/>
      <point x="875" y="1488" type="curve" smooth="yes"/>
      <point x="1294" y="1488"/>
      <point x="1600" y="1175"/>
      <point x="1600" y="750" type="curve" smooth="yes"/>
      <point x="1600" y="325"/>
      <point x="1294" y="12"/>
    </contour>
  </outline>
</glyph>
<glyph name="obreve" format="1">
  <advance width="1230"/>
  <unicode hex="014F"/>
  <outline>
    <contour>
      <point x="915" y="1500" type="curve" name="at01"/>
      <point x="871" y="1500" type="line" name="ah01"/>
      <point x="871" y="1347"/>
      <point x="762" y="1232"/>
      <point x="615" y="1232" type="curve" smooth="yes"/>
      <point x="468" y="1232"/>
      <point x="359" y="1347"/>
      <point x="359" y="1500" type="curve" name="sh01"/>
      <point x="315" y="1500" type="line" name="at02"/>
      <point x="315" y="1326"/>
      <point x="442" y="1194"/>
      <point x="615" y="1194" type="curve" smooth="yes" name="av01"/>
      <point x="788" y="1194"/>
      <point x="915" y="1326"/>
    </contour>
    <contour>
      <point x="616" y="-20" type="curve" smooth="yes"/>
      <point x="905" y="-20"/>
      <point x="1125" y="205"/>
      <point x="1125" y="500" type="curve" smooth="yes"/>
      <point x="1125" y="795"/>
      <point x="905" y="1020"/>
      <point x="616" y="1020" type="curve" smooth="yes"/>
      <point x="326" y="1020"/>
      <point x="105" y="796"/>
      <point x="105" y="500" type="curve" smooth="yes"/>
      <point x="105" y="204"/>
      <point x="326" y="-20"/>
    </contour>
    <contour>
      <point x="616" y="18" type="curve" smooth="yes"/>
      <point x="349" y="18"/>
      <point x="147" y="226"/>
      <point x="147" y="500" type="curve" smooth="yes"/>
      <point x="147" y="774"/>
      <point x="349" y="982"/>
      <point x="616" y="982" type="curve" smooth="yes"/>
      <point x="881" y="982"/>
      <point x="1083" y="774"/>
      <point x="1083" y="500" type="curve" smooth="yes"/>
      <point x="1083" y="226"/>
      <point x="881" y="18"/>
    </contour>
  </outline>
</glyph>
<glyph name="OE" format="1">
  <advance width="2656"/>
  <unicode hex="0152"/>
  <outline>
    <contour>
      <point x="875" y="-32" type="curve" smooth="yes"/>
      <point x="1224" y="-32"/>
      <point x="1498" y="171"/>
      <point x="1601" y="474" type="curve"/>
      <point x="1601" y="0" type="line"/>
      <point x="2481" y="0" type="line"/>
      <point x="2481" y="42" type="line"/>
      <point x="1645" y="42" type="line"/>
      <point x="1645" y="748" type="line"/>
      <point x="2430" y="748" type="line"/>
      <point x="2430" y="790" type="line"/>
      <point x="1645" y="790" type="line"/>
      <point x="1645" y="1458" type="line"/>
      <point x="2471" y="1458" type="line"/>
      <point x="2471" y="1500" type="line"/>
      <point x="1601" y="1500" type="line"/>
      <point x="1601" y="1023" type="line"/>
      <point x="1498" y="1327"/>
      <point x="1223" y="1528"/>
      <point x="876" y="1528" type="curve" smooth="yes"/>
      <point x="430" y="1528"/>
      <point x="105" y="1199"/>
      <point x="105" y="748" type="curve" smooth="yes"/>
      <point x="105" y="297"/>
      <point x="430" y="-32"/>
    </contour>
    <contour>
      <point x="875" y="10" type="curve" smooth="yes"/>
      <point x="456" y="10"/>
      <point x="150" y="322"/>
      <point x="150" y="748" type="curve" smooth="yes"/>
      <point x="150" y="1174"/>
      <point x="456" y="1486"/>
      <point x="875" y="1486" type="curve" smooth="yes"/>
      <point x="1294" y="1486"/>
      <point x="1600" y="1173"/>
      <point x="1600" y="748" type="curve" smooth="yes"/>
      <point x="1600" y="323"/>
      <point x="1294" y="10"/>
    </contour>
  </outline>
</glyph>
<glyph name="rcommaaccent" format="1">
  <advance width="759"/>
  <unicode hex="0157"/>
  <outline>
    <contour>
      <point x="227" y="0" type="line"/>
      <point x="227" y="534" type="line" smooth="yes"/>
      <point x="227" y="796"/>
      <point x="396" y="982"/>
      <point x="633" y="982" type="curve" smooth="yes"/>
      <point x="658" y="982"/>
      <point x="683" y="980"/>
      <point x="709" y="976" type="curve"/>
      <point x="714" y="1014" type="line"/>
      <point x="687" y="1018"/>
      <point x="661" y="1020"/>
      <point x="634" y="1020" type="curve" smooth="yes"/>
      <point x="435" y="1020"/>
      <point x="286" y="922"/>
      <point x="226" y="733" type="curve"/>
      <point x="226" y="1000" type="line"/>
      <point x="186" y="1000" type="line"/>
      <point x="186" y="0" type="line"/>
    </contour>
    <contour>
      <point x="106" y="-442" type="line"/>
      <point x="193" y="-396"/>
      <point x="249" y="-296"/>
      <point x="249" y="-187" type="curve" smooth="yes"/>
      <point x="249" y="-149"/>
      <point x="243" y="-113"/>
      <point x="230" y="-78" type="curve"/>
      <point x="194" y="-90" type="line"/>
      <point x="207" y="-121"/>
      <point x="213" y="-154"/>
      <point x="213" y="-187" type="curve" smooth="yes"/>
      <point x="213" y="-276"/>
      <point x="168" y="-367"/>
      <point x="90" y="-418" type="curve"/>
    </contour>
  </outline>
</glyph>
<glyph name="rcaron" format="1">
  <advance width="758"/>
  <unicode hex="0159"/>
  <outline>
    <contour>
      <point x="408" y="1170" type="line" name="at01"/>
      <point x="613" y="1500" type="line"/>
      <point x="578" y="1500" type="line" name="av01"/>
      <point x="379" y="1204" type="line"/>
      <point x="180" y="1500" type="line" name="av01.1"/>
      <point x="145" y="1500" type="line"/>
      <point x="350" y="1170" type="line" name="at01.1"/>
    </contour>
    <contour>
      <point x="226" y="0" type="line"/>
      <point x="226" y="534" type="line" smooth="yes"/>
      <point x="226" y="796"/>
      <point x="395" y="982"/>
      <point x="632" y="982" type="curve" smooth="yes"/>
      <point x="657" y="982"/>
      <point x="682" y="980"/>
      <point x="708" y="976" type="curve"/>
      <point x="713" y="1014" type="line"/>
      <point x="686" y="1018"/>
      <point x="660" y="1020"/>
      <point x="633" y="1020" type="curve" smooth="yes"/>
      <point x="434" y="1020"/>
      <point x="285" y="922"/>
      <point x="225" y="733" type="curve"/>
      <point x="225" y="1000" type="line"/>
      <point x="185" y="1000" type="line"/>
      <point x="185" y="0" type="line"/>
    </contour>
  </outline>
</glyph>
<glyph name="Tcedilla" format="1">
  <advance width="1218"/>
  <unicode hex="0162"/>
  <outline>
    <contour>
      <point x="631" y="0" type="line"/>
      <point x="631" y="1458" type="line"/>
      <point x="1153" y="1458" type="line"/>
      <point x="1153" y="1500" type="line"/>
      <point x="65" y="1500" type="line"/>
      <point x="65" y="1458" type="line"/>
      <point x="587" y="1458" type="line"/>
      <point x="587" y="0" type="line"/>
      <point x="588" y="0" type="line"/>
      <point x="536" y="-135" type="line"/>
      <point x="551" y="-133"/>
      <point x="565" y="-132"/>
      <point x="578" y="-132" type="curve" smooth="yes"/>
      <point x="672" y="-132"/>
      <point x="738" y="-177"/>
      <point x="738" y="-246" type="curve" smooth="yes"/>
      <point x="738" y="-318"/>
      <point x="665" y="-369"/>
      <point x="564" y="-369" type="curve" smooth="yes"/>
      <point x="528" y="-369"/>
      <point x="491" y="-362"/>
      <point x="455" y="-349" type="curve"/>
      <point x="443" y="-388" type="line"/>
      <point x="489" y="-401"/>
      <point x="531" y="-407"/>
      <point x="569" y="-407" type="curve" smooth="yes"/>
      <point x="691" y="-407"/>
      <point x="779" y="-341"/>
      <point x="779" y="-249" type="curve" smooth="yes"/>
      <point x="779" y="-159"/>
      <point x="698" y="-100"/>
      <point x="590" y="-100" type="curve"/>
      <point x="629" y="0" type="line"/>
    </contour>
  </outline>
</glyph>
<glyph name="tcaron" format="2">
  <advance width="906"/>
  <unicode hex="0165"/>
  <anchor x="437" y="0" name="bottom"/>
  <anchor x="397" y="500" name="center"/>
  <anchor x="397" y="1000" name="top"/>
  <anchor x="773" y="1500" name="topright"/>
  <outline>
    <contour>
      <point x="748" y="1070" type="line"/>
      <point x="861" y="1520" type="line"/>
      <point x="818" y="1520" type="line" name="av01"/>
      <point x="717" y="1070" type="line"/>
    </contour>
    <component base="t"/>
  </outline>
</glyph>
<glyph name="tbar" format="1">
  <advance width="793"/>
  <unicode hex="0167"/>
  <outline>
    <contour>
      <point x="651" y="556" type="line" name="av02"/>
      <point x="651" y="594" type="line"/>
      <point x="331" y="594" type="line"/>
      <point x="331" y="962" type="line"/>
      <point x="651" y="962" type="line"/>
      <point x="651" y="1000" type="line"/>
      <point x="331" y="1000" type="line"/>
      <point x="331" y="1250" type="line"/>
      <point x="290" y="1250" type="line"/>
      <point x="290" y="1000" type="line"/>
      <point x="115" y="1000" type="line"/>
      <point x="115" y="962" type="line"/>
      <point x="290" y="962" type="line"/>
      <point x="290" y="594" type="line"/>
      <point x="115" y="594" type="line" name="av01"/>
      <point x="115" y="556" type="line"/>
      <point x="290" y="556" type="line"/>
      <point x="290" y="236" type="line" smooth="yes"/>
      <point x="290" y="81"/>
      <point x="382" y="-20"/>
      <point x="522" y="-20" type="curve" smooth="yes"/>
      <point x="573" y="-20"/>
      <point x="627" y="-6"/>
      <point x="678" y="21" type="curve"/>
      <point x="662" y="56" type="line"/>
      <point x="615" y="31"/>
      <point x="569" y="18"/>
      <point x="525" y="18" type="curve" smooth="yes"/>
      <point x="408" y="18"/>
      <point x="331" y="107"/>
      <point x="331" y="243" type="curve" smooth="yes"/>
      <point x="331" y="556" type="line"/>
    </contour>
  </outline>
</glyph>
<glyph name="Uring" format="1">
  <advance width="1578"/>
  <unicode hex="016E"/>
  <outline>
    <contour>
      <point x="789" y="1621" type="curve" smooth="yes"/>
      <point x="909" y="1621"/>
      <point x="989" y="1700"/>
      <point x="989" y="1820" type="curve" smooth="yes"/>
      <point x="989" y="1940"/>
      <point x="909" y="2020"/>
      <point x="789" y="2020" type="curve" smooth="yes"/>
      <point x="669" y="2020"/>
      <point x="589" y="1940"/>
      <point x="589" y="1820" type="curve" smooth="yes"/>
      <point x="589" y="1700"/>
      <point x="669" y="1621"/>
    </contour>
    <contour>
      <point x="789" y="1659" type="curve" smooth="yes"/>
      <point x="694" y="1659"/>
      <point x="631" y="1723"/>
      <point x="631" y="1820" type="curve" smooth="yes"/>
      <point x="631" y="1917"/>
      <point x="694" y="1982"/>
      <point x="789" y="1982" type="curve" smooth="yes"/>
      <point x="884" y="1982"/>
      <point x="947" y="1917"/>
      <point x="947" y="1820" type="curve" smooth="yes"/>
      <point x="947" y="1723"/>
      <point x="884" y="1659"/>
    </contour>
    <contour>
      <point x="1393" y="1500" type="line"/>
      <point x="1349" y="1500" type="line"/>
      <point x="1349" y="657" type="line" smooth="yes"/>
      <point x="1349" y="262"/>
      <point x="1132" y="12"/>
      <point x="789" y="12" type="curve" smooth="yes"/>
      <point x="447" y="12"/>
      <point x="229" y="263"/>
      <point x="229" y="657" type="curve" smooth="yes"/>
      <point x="229" y="1500" type="line"/>
      <point x="185" y="1500" type="line"/>
      <point x="185" y="667" type="line" smooth="yes"/>
      <point x="185" y="233"/>
      <point x="413" y="-30"/>
      <point x="789" y="-30" type="curve" smooth="yes"/>
      <point x="1166" y="-30"/>
      <point x="1393" y="232"/>
      <point x="1393" y="667" type="curve" smooth="yes"/>
    </contour>
  </outline>
</glyph>
<glyph name="uhungarumlaut" format="1">
  <advance width="1192"/>
  <unicode hex="0171"/>
  <outline>
    <contour>
      <point x="412" y="1170" type="line"/>
      <point x="603" y="1500" type="line"/>
      <point x="550" y="1500" type="line"/>
      <point x="379" y="1170" type="line"/>
    </contour>
    <contour>
      <point x="763" y="1170" type="line"/>
      <point x="954" y="1500" type="line"/>
      <point x="901" y="1500" type="line"/>
      <point x="729" y="1170" type="line"/>
    </contour>
    <contour>
      <point x="1007" y="0" type="line"/>
      <point x="1007" y="1000" type="line"/>
      <point x="966" y="1000" type="line"/>
      <point x="966" y="437" type="line" smooth="yes"/>
      <point x="966" y="178"/>
      <point x="819" y="18"/>
      <point x="582" y="18" type="curve" smooth="yes"/>
      <point x="346" y="18"/>
      <point x="206" y="174"/>
      <point x="206" y="437" type="curve" smooth="yes"/>
      <point x="206" y="1000" type="line"/>
      <point x="165" y="1000" type="line"/>
      <point x="165" y="437" type="line" smooth="yes"/>
      <point x="165" y="149"/>
      <point x="319" y="-20"/>
      <point x="583" y="-20" type="curve" smooth="yes"/>
      <point x="771" y="-20"/>
      <point x="905" y="67"/>
      <point x="968" y="235" type="curve"/>
      <point x="968" y="0" type="line"/>
    </contour>
  </outline>
</glyph>
<glyph name="Uogonek" format="1">
  <advance width="1578"/>
  <unicode hex="0172"/>
  <outline>
    <contour>
      <point x="1393" y="1500" type="line"/>
      <point x="1349" y="1500" type="line"/>
      <point x="1349" y="657" type="line" smooth="yes"/>
      <point x="1349" y="262"/>
      <point x="1132" y="12"/>
      <point x="789" y="12" type="curve" smooth="yes"/>
      <point x="447" y="12"/>
      <point x="229" y="263"/>
      <point x="229" y="657" type="curve" smooth="yes"/>
      <point x="229" y="1500" type="line"/>
      <point x="185" y="1500" type="line"/>
      <point x="185" y="667" type="line" smooth="yes"/>
      <point x="185" y="233"/>
      <point x="413" y="-30"/>
      <point x="789" y="-30" type="curve" smooth="yes"/>
      <point x="840" y="-30"/>
      <point x="889" y="-26"/>
      <point x="935" y="-16" type="curve"/>
      <point x="838" y="-70"/>
      <point x="779" y="-155"/>
      <point x="779" y="-243" type="curve" smooth="yes"/>
      <point x="779" y="-337"/>
      <point x="846" y="-416"/>
      <point x="968" y="-416" type="curve" name="av01"/>
      <point x="968" y="-379" type="line"/>
      <point x="864" y="-370"/>
      <point x="820" y="-312"/>
      <point x="820" y="-243" type="curve" smooth="yes"/>
      <point x="820" y="-152"/>
      <point x="896" y="-42"/>
      <point x="1006" y="4" type="curve" name="ab01"/>
      <point x="1251" y="88"/>
      <point x="1393" y="323"/>
      <point x="1393" y="667" type="curve" smooth="yes"/>
    </contour>
  </outline>
</glyph>
<glyph name="uogonek" format="1">
  <advance width="1192"/>
  <unicode hex="0173"/>
  <outline>
    <contour>
      <point x="1007" y="0" type="line"/>
      <point x="1007" y="1000" type="line"/>
      <point x="966" y="1000" type="line"/>
      <point x="966" y="437" type="line" smooth="yes"/>
      <point x="966" y="178"/>
      <point x="819" y="18"/>
      <point x="582" y="18" type="curve" smooth="yes"/>
      <point x="346" y="18"/>
      <point x="206" y="174"/>
      <point x="206" y="437" type="curve" smooth="yes"/>
      <point x="206" y="1000" type="line"/>
      <point x="165" y="1000" type="line"/>
      <point x="165" y="437" type="line" smooth="yes"/>
      <point x="165" y="149"/>
      <point x="319" y="-20"/>
      <point x="583" y="-20" type="curve" smooth="yes"/>
      <point x="771" y="-20"/>
      <point x="905" y="67"/>
      <point x="968" y="235" type="curve"/>
      <point x="968" y="0" type="line"/>
      <point x="971" y="0" type="line" name="ab01"/>
      <point x="856" y="-52"/>
      <point x="785" y="-146"/>
      <point x="785" y="-243" type="curve" smooth="yes"/>
      <point x="785" y="-337"/>
      <point x="852" y="-416"/>
      <point x="974" y="-416" type="curve" name="av01"/>
      <point x="974" y="-379" type="line"/>
      <point x="870" y="-370"/>
      <point x="826" y="-312"/>
      <point x="826" y="-243" type="curve" smooth="yes"/>
      <point x="826" y="-155"/>
      <point x="898" y="-48"/>
      <point x="1003" y="0" type="curve"/>
    </contour>
  </outline>
</glyph>
<glyph name="Wcircumflex" format="1">
  <advance width="2088"/>
  <unicode hex="0174"/>
  <outline>
    <contour>
      <point x="1281" y="1670" type="line"/>
      <point x="1076" y="2000" type="line" name="at01"/>
      <point x="1019" y="2000" type="line" name="at01.1"/>
      <point x="814" y="1670" type="line"/>
      <point x="848" y="1670" type="line" name="av01"/>
      <point x="1047" y="1966" type="line"/>
      <point x="1247" y="1670" type="line" name="av01.1"/>
    </contour>
    <contour>
      <point x="1517" y="0" type="line"/>
      <point x="2003" y="1500" type="line"/>
      <point x="1957" y="1500" type="line"/>
      <point x="1507" y="112" type="line"/>
      <point x="1056" y="1500" type="line"/>
      <point x="1035" y="1500" type="line"/>
      <point x="584" y="110" type="line"/>
      <point x="131" y="1500" type="line"/>
      <point x="85" y="1500" type="line"/>
      <point x="573" y="0" type="line"/>
      <point x="594" y="0" type="line"/>
      <point x="1046" y="1391" type="line"/>
      <point x="1496" y="0" type="line"/>
    </contour>
  </outline>
</glyph>
<glyph name="wcircumflex" format="1">
  <advance width="1552"/>
  <unicode hex="0175"/>
  <outline>
    <contour>
      <point x="1013" y="1170" type="line"/>
      <point x="808" y="1500" type="line" name="at01"/>
      <point x="751" y="1500" type="line" name="at01.1"/>
      <point x="546" y="1170" type="line"/>
      <point x="580" y="1170" type="line" name="av01"/>
      <point x="780" y="1466" type="line"/>
      <point x="979" y="1170" type="line" name="av01.1"/>
    </contour>
    <contour>
      <point x="1130" y="0" type="line"/>
      <point x="1467" y="1000" type="line"/>
      <point x="1424" y="1000" type="line"/>
      <point x="1110" y="69" type="line"/>
      <point x="796" y="1000" type="line"/>
      <point x="755" y="1000" type="line"/>
      <point x="441" y="69" type="line"/>
      <point x="128" y="1000" type="line"/>
      <point x="85" y="1000" type="line"/>
      <point x="421" y="0" type="line"/>
      <point x="462" y="0" type="line"/>
      <point x="775" y="932" type="line"/>
      <point x="1089" y="0" type="line"/>
    </contour>
  </outline>
</glyph>
<glyph name="Zacute" format="1">
  <advance width="1307"/>
  <unicode hex="0179"/>
  <outline>
    <contour>
      <point x="677" y="1670" type="line"/>
      <point x="868" y="2000" type="line"/>
      <point x="814" y="2000" type="line"/>
      <point x="643" y="1670" type="line"/>
    </contour>
    <contour>
      <point x="1202" y="0" type="line"/>
      <point x="1202" y="42" type="line"/>
      <point x="162" y="42" type="line"/>
      <point x="1182" y="1448" type="line"/>
      <point x="1182" y="1500" type="line"/>
      <point x="145" y="1500" type="line"/>
      <point x="145" y="1458" type="line"/>
      <point x="1135" y="1458" type="line"/>
      <point x="105" y="42" type="line"/>
      <point x="105" y="0" type="line"/>
    </contour>
  </outline>
</glyph>
<glyph name="zacute" format="1">
  <advance width="1010"/>
  <unicode hex="017A"/>
  <outline>
    <contour>
      <point x="526" y="1170" type="line"/>
      <point x="717" y="1500" type="line"/>
      <point x="664" y="1500" type="line"/>
      <point x="492" y="1170" type="line"/>
    </contour>
    <contour>
      <point x="905" y="0" type="line"/>
      <point x="905" y="38" type="line"/>
      <point x="157" y="38" type="line"/>
      <point x="890" y="964" type="line"/>
      <point x="890" y="1000" type="line"/>
      <point x="137" y="1000" type="line"/>
      <point x="137" y="962" type="line"/>
      <point x="836" y="962" type="line"/>
      <point x="105" y="38" type="line"/>
      <point x="105" y="0" type="line"/>
    </contour>
  </outline>
</glyph>
<glyph name="Zcaron" format="1">
  <advance width="1307"/>
  <unicode hex="017D"/>
  <outline>
    <contour>
      <point x="702" y="1670" type="line" name="at01"/>
      <point x="907" y="2000" type="line"/>
      <point x="873" y="2000" type="line" name="av01"/>
      <point x="674" y="1704" type="line"/>
      <point x="474" y="2000" type="line" name="av01.1"/>
      <point x="440" y="2000" type="line"/>
      <point x="645" y="1670" type="line" name="at01.1"/>
    </contour>
    <contour>
      <point x="1202" y="0" type="line"/>
      <point x="1202" y="42" type="line"/>
      <point x="162" y="42" type="line"/>
      <point x="1182" y="1448" type="line"/>
      <point x="1182" y="1500" type="line"/>
      <point x="145" y="1500" type="line"/>
      <point x="145" y="1458" type="line"/>
      <point x="1135" y="1458" type="line"/>
      <point x="105" y="42" type="line"/>
      <point x="105" y="0" type="line"/>
    </contour>
  </outline>
</glyph>
<glyph name="zcaron" format="1">
  <advance width="1010"/>
  <unicode hex="017E"/>
  <outline>
    <contour>
      <point x="552" y="1170" type="line" name="at01"/>
      <point x="757" y="1500" type="line"/>
      <point x="722" y="1500" type="line" name="av01"/>
      <point x="523" y="1204" type="line"/>
      <point x="324" y="1500" type="line" name="av01.1"/>
      <point x="289" y="1500" type="line"/>
      <point x="494" y="1170" type="line" name="at01.1"/>
    </contour>
    <contour>
      <point x="905" y="0" type="line"/>
      <point x="905" y="38" type="line"/>
      <point x="157" y="38" type="line"/>
      <point x="890" y="964" type="line"/>
      <point x="890" y="1000" type="line"/>
      <point x="137" y="1000" type="line"/>
      <point x="137" y="962" type="line"/>
      <point x="836" y="962" type="line"/>
      <point x="105" y="38" type="line"/>
      <point x="105" y="0" type="line"/>
    </contour>
  </outline>
</glyph>
<glyph name="longs" format="2">
  <advance width="576"/>
  <unicode hex="017F"/>
  <outline>
    <contour>
      <point x="229" y="0" type="line"/>
      <point x="229" y="1272" type="line" smooth="yes"/>
      <point x="229" y="1411"/>
      <point x="296" y="1488"/>
      <point x="414" y="1488" type="curve" smooth="yes"/>
      <point x="435" y="1488"/>
      <point x="458" y="1485"/>
      <point x="482" y="1480" type="curve"/>
      <point x="491" y="1522" type="line"/>
      <point x="464" y="1527"/>
      <point x="438" y="1530"/>
      <point x="414" y="1530" type="curve" smooth="yes"/>
      <point x="268" y="1530"/>
      <point x="185" y="1436"/>
      <point x="185" y="1271" type="curve" smooth="yes"/>
      <point x="185" y="0" type="line"/>
    </contour>
  </outline>
</glyph>
<glyph name="Tcommaaccent" format="1">
  <advance width="1218"/>
  <unicode hex="021A"/>
  <outline>
    <contour>
      <point x="631" y="0" type="line"/>
      <point x="631" y="1458" type="line"/>
      <point x="1153" y="1458" type="line"/>
      <point x="1153" y="1500" type="line"/>
      <point x="65" y="1500" type="line"/>
      <point x="65" y="1458" type="line"/>
      <point x="587" y="1458" type="line"/>
      <point x="587" y="0" type="line"/>
    </contour>
    <contour>
      <point x="507" y="-442" type="line"/>
      <point x="594" y="-396"/>
      <point x="650" y="-296"/>
      <point x="650" y="-187" type="curve" smooth="yes"/>
      <point x="650" y="-149"/>
      <point x="644" y="-113"/>
      <point x="631" y="-78" type="curve"/>
      <point x="594" y="-90" type="line"/>
      <point x="607" y="-121"/>
      <point x="614" y="-154"/>
      <point x="614" y="-187" type="curve" smooth="yes"/>
      <point x="614" y="-276"/>
      <point x="569" y="-367"/>
      <point x="491" y="-418" type="curve"/>
    </contour>
  </outline>
</glyph>
<glyph name="breve" format="1">
  <advance width="970"/>
  <unicode hex="02D8"/>
  <outline>
    <contour>
      <point x="785" y="1500" type="curve" name="at01"/>
      <point x="741" y="1500" type="line" name="ah01"/>
      <point x="741" y="1347"/>
      <point x="632" y="1232"/>
      <point x="485" y="1232" type="curve" smooth="yes"/>
      <point x="338" y="1232"/>
      <point x="229" y="1347"/>
      <point x="229" y="1500" type="curve" name="sh01"/>
      <point x="185" y="1500" type="line" name="at02"/>
      <point x="185" y="1326"/>
      <point x="312" y="1194"/>
      <point x="485" y="1194" type="curve" smooth="yes" name="av01"/>
      <point x="658" y="1194"/>
      <point x="785" y="1326"/>
    </contour>
  </outline>
</glyph>
<glyph name="macroncomb" format="2">
  <unicode hex="0304"/>
  <anchor x="495" y="1000" name="_top"/>
  <anchor x="495" y="1370" name="top"/>
  <outline>
    <contour>
      <point x="805" y="1332" type="line" name="av02"/>
      <point x="805" y="1370" type="line"/>
      <point x="185" y="1370" type="line" name="av01"/>
      <point x="185" y="1332" type="line"/>
    </contour>
  </outline>
</glyph>
<glyph name="brevecomb" format="2">
  <unicode hex="0306"/>
  <anchor x="485" y="1000" name="_top"/>
  <anchor x="485" y="1500" name="top"/>
  <outline>
    <contour>
      <point x="785" y="1500" type="curve" name="at01"/>
      <point x="741" y="1500" type="line" name="ah01"/>
      <point x="741" y="1347"/>
      <point x="632" y="1232"/>
      <point x="485" y="1232" type="curve" smooth="yes"/>
      <point x="338" y="1232"/>
      <point x="229" y="1347"/>
      <point x="229" y="1500" type="curve" name="sh01"/>
      <point x="185" y="1500" type="line" name="at02"/>
      <point x="185" y="1326"/>
      <point x="312" y="1194"/>
      <point x="485" y="1194" type="curve" smooth="yes" name="av01"/>
      <point x="658" y="1194"/>
      <point x="785" y="1326"/>
    </contour>
  </outline>
</glyph>
<glyph name="ringcomb" format="2">
  <unicode hex="030A"/>
  <anchor x="385" y="1000" name="_top"/>
  <anchor x="385" y="1520" name="top"/>
  <outline>
    <contour>
      <point x="385" y="1121" type="curve" smooth="yes"/>
      <point x="505" y="1121"/>
      <point x="585" y="1200"/>
      <point x="585" y="1320" type="curve" smooth="yes"/>
      <point x="585" y="1440"/>
      <point x="505" y="1520"/>
      <point x="385" y="1520" type="curve" smooth="yes"/>
      <point x="265" y="1520"/>
      <point x="185" y="1440"/>
      <point x="185" y="1320" type="curve" smooth="yes"/>
      <point x="185" y="1200"/>
      <point x="265" y="1121"/>
    </contour>
    <contour>
      <point x="385" y="1159" type="curve" smooth="yes"/>
      <point x="290" y="1159"/>
      <point x="227" y="1223"/>
      <point x="227" y="1320" type="curve" smooth="yes"/>
      <point x="227" y="1417"/>
      <point x="290" y="1482"/>
      <point x="385" y="1482" type="curve" smooth="yes"/>
      <point x="480" y="1482"/>
      <point x="543" y="1417"/>
      <point x="543" y="1320" type="curve" smooth="yes"/>
      <point x="543" y="1223"/>
      <point x="480" y="1159"/>
    </contour>
  </outline>
</glyph>
<glyph name="hungarumlautcomb" format="2">
  <unicode hex="030B"/>
  <anchor x="315" y="1000" name="_top"/>
  <anchor x="315" y="1500" name="top"/>
  <outline>
    <contour>
      <point x="133" y="1170" type="line"/>
      <point x="324" y="1500" type="line"/>
      <point x="271" y="1500" type="line"/>
      <point x="100" y="1170" type="line"/>
    </contour>
    <contour>
      <point x="484" y="1170" type="line"/>
      <point x="675" y="1500" type="line"/>
      <point x="622" y="1500" type="line"/>
      <point x="450" y="1170" type="line"/>
    </contour>
  </outline>
</glyph>
<glyph name="caroncomb" format="2">
  <unicode hex="030C"/>
  <anchor x="419" y="1000" name="_top"/>
  <anchor x="419" y="1500" name="top"/>
  <outline>
    <contour>
      <point x="447" y="1170" type="line" name="at01"/>
      <point x="652" y="1500" type="line"/>
      <point x="618" y="1500" type="line" name="av01"/>
      <point x="419" y="1204" type="line"/>
      <point x="220" y="1500" type="line" name="av01.1"/>
      <point x="185" y="1500" type="line"/>
      <point x="390" y="1170" type="line" name="at01.1"/>
    </contour>
  </outline>
</glyph>
<glyph name="commaaccent" format="2">
  <unicode hex="0326"/>
  <anchor x="303" y="0" name="_bottom"/>
  <anchor x="303" y="-442" name="bottom"/>
  <outline>
    <contour>
      <point x="201" y="-442" type="line"/>
      <point x="288" y="-396"/>
      <point x="344" y="-296"/>
      <point x="344" y="-187" type="curve" smooth="yes"/>
      <point x="344" y="-149"/>
      <point x="338" y="-113"/>
      <point x="325" y="-78" type="curve"/>
      <point x="289" y="-90" type="line"/>
      <point x="302" y="-121"/>
      <point x="308" y="-154"/>
      <point x="308" y="-187" type="curve" smooth="yes"/>
      <point x="308" y="-276"/>
      <point x="263" y="-367"/>
      <point x="185" y="-418" type="curve"/>
    </contour>
  </outline>
</glyph>
<glyph name="ogonekcomb" format="2">
  <unicode hex="0328"/>
  <anchor x="412" y="0" name="_ogonek"/>
  <outline>
    <contour>
      <point x="374" y="-416" type="curve" name="av01"/>
      <point x="374" y="-379" type="line"/>
      <point x="270" y="-370"/>
      <point x="226" y="-312"/>
      <point x="226" y="-243" type="curve" smooth="yes"/>
      <point x="226" y="-152"/>
      <point x="302" y="-41"/>
      <point x="412" y="4" type="curve"/>
      <point x="380" y="4" type="line" name="ab01"/>
      <point x="260" y="-47"/>
      <point x="185" y="-143"/>
      <point x="185" y="-243" type="curve" smooth="yes"/>
      <point x="185" y="-337"/>
      <point x="252" y="-416"/>
    </contour>
  </outline>
</glyph>
<glyph name="uni0394" format="1">
  <advance width="1438"/>
  <unicode hex="0394"/>
  <outline>
    <contour>
      <point x="1363" y="0" type="line"/>
      <point x="751" y="1500" type="line"/>
      <point x="687" y="1500" type="line"/>
      <point x="75" y="0" type="line"/>
    </contour>
    <contour>
      <point x="140" y="42" type="line"/>
      <point x="719" y="1461" type="line"/>
      <point x="1298" y="42" type="line"/>
    </contour>
  </outline>
</glyph>
<glyph name="uni03A9" format="2">
  <advance width="1809"/>
  <unicode hex="03A9"/>
  <outline>
    <contour>
      <point x="1704" y="0" type="line"/>
      <point x="1704" y="42" type="line"/>
      <point x="1217" y="42" type="line"/>
      <point x="1473" y="167"/>
      <point x="1638" y="452"/>
      <point x="1638" y="786" type="curve" smooth="yes"/>
      <point x="1638" y="1231"/>
      <point x="1344" y="1530"/>
      <point x="905" y="1530" type="curve" smooth="yes"/>
      <point x="465" y="1530"/>
      <point x="171" y="1232"/>
      <point x="171" y="786" type="curve" smooth="yes"/>
      <point x="171" y="452"/>
      <point x="335" y="167"/>
      <point x="591" y="42" type="curve"/>
      <point x="105" y="42" type="line"/>
      <point x="105" y="0" type="line"/>
      <point x="714" y="0" type="line"/>
      <point x="714" y="21" type="line"/>
      <point x="419" y="120"/>
      <point x="216" y="431"/>
      <point x="216" y="787" type="curve" smooth="yes"/>
      <point x="216" y="1204"/>
      <point x="495" y="1488"/>
      <point x="905" y="1488" type="curve" smooth="yes"/>
      <point x="1316" y="1488"/>
      <point x="1593" y="1205"/>
      <point x="1593" y="789" type="curve" smooth="yes"/>
      <point x="1593" y="433"/>
      <point x="1390" y="121"/>
      <point x="1095" y="21" type="curve"/>
      <point x="1095" y="0" type="line"/>
    </contour>
  </outline>
</glyph>
<glyph name="Germandbls" format="1">
  <advance width="1298"/>
  <unicode hex="1E9E"/>
  <outline>
    <contour>
      <point x="230.943" y="0" type="line"/>
      <point x="230.444" y="1010.06" type="line" smooth="yes"/>
      <point x="230.301" y="1300.35"/>
      <point x="388.396" y="1488"/>
      <point x="632.739" y="1488" type="curve" smooth="yes"/>
      <point x="833.415" y="1488"/>
      <point x="979.238" y="1368.67"/>
      <point x="1032.26" y="1169.23" type="curve"/>
      <point x="674.884" y="760.003" type="line"/>
      <point x="691.297" y="730.411" type="line"/>
      <point x="933.252" y="730.411"/>
      <point x="1118" y="577.472"/>
      <point x="1118" y="377.176" type="curve" smooth="yes"/>
      <point x="1118" y="167.611"/>
      <point x="932.427" y="12"/>
      <point x="682.513" y="12" type="curve" smooth="yes"/>
      <point x="617.245" y="12"/>
      <point x="552.927" y="23.6274"/>
      <point x="494.439" y="46" type="curve"/>
      <point x="480.551" y="6.03527" type="line"/>
      <point x="539.223" y="-17.5823"/>
      <point x="607.325" y="-30"/>
      <point x="678.178" y="-30" type="curve" smooth="yes"/>
      <point x="957.27" y="-30"/>
      <point x="1163" y="142.707"/>
      <point x="1163" y="377" type="curve" smooth="yes"/>
      <point x="1163" y="611.852"/>
      <point x="979.408" y="766.642"/>
      <point x="700.858" y="766.642" type="curve"/>
      <point x="717.535" y="746.258" type="line"/>
      <point x="1062" y="1141" type="line" smooth="yes"/>
      <point x="1070.96" y="1151.27"/>
      <point x="1073.09" y="1174.54"/>
      <point x="1066.21" y="1199.43" type="curve" smooth="yes"/>
      <point x="1010.91" y="1399.46"/>
      <point x="839.734" y="1530"/>
      <point x="632.739" y="1530" type="curve" smooth="yes"/>
      <point x="368.461" y="1530"/>
      <point x="185.556" y="1326.69"/>
      <point x="185.556" y="1032.94" type="curve" smooth="yes"/>
      <point x="185.556" y="0" type="line"/>
    </contour>
  </outline>
</glyph>
<glyph name="emdash" format="2">
  <advance width="2410"/>
  <unicode hex="2014"/>
  <outline>
    <contour>
      <point x="2225" y="480" type="line" name="dv01"/>
      <point x="2225" y="518" type="line" name="dv02"/>
      <point x="185" y="518" type="line"/>
      <point x="185" y="480" type="line"/>
    </contour>
  </outline>
</glyph>
<glyph name="quotedblleft" format="2">
  <advance width="842"/>
  <unicode hex="201C"/>
  <outline>
    <contour>
      <point x="228" y="1070" type="line" name="av01"/>
      <point x="329" y="1520" type="line"/>
      <point x="298" y="1520" type="line"/>
      <point x="185" y="1070" type="line"/>
    </contour>
    <contour>
      <point x="556" y="1070" type="line" name="av01.1"/>
      <point x="657" y="1520" type="line"/>
      <point x="626" y="1520" type="line"/>
      <point x="513" y="1070" type="line"/>
    </contour>
  </outline>
</glyph>
<glyph name="dagger" format="2">
  <advance width="1110"/>
  <unicode hex="2020"/>
  <outline>
    <contour>
      <point x="577" y="0" type="line"/>
      <point x="565" y="990" type="line"/>
      <point x="925" y="979" type="line"/>
      <point x="925" y="1021" type="line"/>
      <point x="565" y="1010" type="line"/>
      <point x="577" y="1500" type="line" name="at01"/>
      <point x="533" y="1500" type="line"/>
      <point x="545" y="1010" type="line"/>
      <point x="185" y="1021" type="line"/>
      <point x="185" y="979" type="line"/>
      <point x="545" y="990" type="line"/>
      <point x="533" y="0" type="line" name="ab01"/>
    </contour>
  </outline>
</glyph>
<glyph name="daggerdbl" format="2">
  <advance width="1110"/>
  <unicode hex="2021"/>
  <outline>
    <contour>
      <point x="577" y="0" type="line" name="at01"/>
      <point x="565" y="490" type="line"/>
      <point x="925" y="479" type="line"/>
      <point x="925" y="521" type="line"/>
      <point x="565" y="510" type="line"/>
      <point x="568" y="745" type="line"/>
      <point x="565" y="990" type="line"/>
      <point x="925" y="979" type="line"/>
      <point x="925" y="1021" type="line"/>
      <point x="565" y="1010" type="line"/>
      <point x="577" y="1500" type="line" name="at01"/>
      <point x="533" y="1500" type="line"/>
      <point x="545" y="1010" type="line"/>
      <point x="185" y="1021" type="line"/>
      <point x="185" y="979" type="line"/>
      <point x="545" y="990" type="line"/>
      <point x="542" y="745" type="line"/>
      <point x="545" y="510" type="line"/>
      <point x="185" y="521" type="line"/>
      <point x="185" y="479" type="line"/>
      <point x="545" y="490" type="line"/>
      <point x="533" y="0" type="line"/>
    </contour>
  </outline>
</glyph>
<glyph name="bullet" format="2">
  <advance width="490"/>
  <unicode hex="2022"/>
  <outline>
    <contour>
      <point x="245" y="590" type="curve" smooth="yes"/>
      <point x="311" y="590"/>
      <point x="355" y="634"/>
      <point x="355" y="700" type="curve" smooth="yes"/>
      <point x="355" y="766"/>
      <point x="311" y="810"/>
      <point x="245" y="810" type="curve" smooth="yes"/>
      <point x="179" y="810"/>
      <point x="135" y="766"/>
      <point x="135" y="700" type="curve" smooth="yes"/>
      <point x="135" y="634"/>
      <point x="179" y="590"/>
    </contour>
  </outline>
</glyph>
<glyph name="ellipsis" format="1">
  <advance width="1294"/>
  <unicode hex="2026"/>
  <outline>
    <contour>
      <point x="217" y="-20" type="curve" smooth="yes"/>
      <point x="241" y="-20"/>
      <point x="259" y="-2"/>
      <point x="259" y="22" type="curve" smooth="yes"/>
      <point x="259" y="45"/>
      <point x="241" y="64"/>
      <point x="217" y="64" type="curve" smooth="yes"/>
      <point x="193" y="64"/>
      <point x="175" y="45"/>
      <point x="175" y="22" type="curve" smooth="yes"/>
      <point x="175" y="-2"/>
      <point x="193" y="-20"/>
    </contour>
    <contour>
      <point x="647" y="-20" type="curve" smooth="yes"/>
      <point x="671" y="-20"/>
      <point x="689" y="-2"/>
      <point x="689" y="22" type="curve" smooth="yes"/>
      <point x="689" y="45"/>
      <point x="671" y="64"/>
      <point x="647" y="64" type="curve" smooth="yes"/>
      <point x="623" y="64"/>
      <point x="605" y="45"/>
      <point x="605" y="22" type="curve" smooth="yes"/>
      <point x="605" y="-2"/>
      <point x="623" y="-20"/>
    </contour>
    <contour>
      <point x="1077" y="-20" type="curve" smooth="yes"/>
      <point x="1101" y="-20"/>
      <point x="1119" y="-2"/>
      <point x="1119" y="22" type="curve" smooth="yes"/>
      <point x="1119" y="45"/>
      <point x="1101" y="64"/>
      <point x="1077" y="64" type="curve" smooth="yes"/>
      <point x="1053" y="64"/>
      <point x="1035" y="45"/>
      <point x="1035" y="22" type="curve" smooth="yes"/>
      <point x="1035" y="-2"/>
      <point x="1053" y="-20"/>
    </contour>
  </outline>
</glyph>
<glyph name="guilsinglleft" format="1">
  <advance width="671"/>
  <unicode hex="2039"/>
  <outline>
    <contour>
      <point x="486" y="110" type="line"/>
      <point x="155" y="500" type="line"/>
      <point x="486" y="890" type="line"/>
      <point x="436" y="890" type="line" name="av02"/>
      <point x="105" y="500" type="line"/>
      <point x="436" y="110" type="line" name="av01"/>
    </contour>
  </outline>
</glyph>
<glyph name="guilsinglright" format="2">
  <advance width="671"/>
  <unicode hex="203A"/>
  <outline>
    <contour>
      <point x="235" y="110" type="line" name="av01"/>
      <point x="566" y="500" type="line"/>
      <point x="235" y="890" type="line" name="av02"/>
      <point x="185" y="890" type="line"/>
      <point x="516" y="500" type="line"/>
      <point x="185" y="110" type="line"/>
    </contour>
  </outline>
</glyph>
<glyph name="four.superior" format="2">
  <advance width="722"/>
  <unicode hex="2074"/>
  <outline>
    <contour>
      <point x="531" y="730" type="line"/>
      <point x="531" y="941" type="line"/>
      <point x="617" y="941" type="line"/>
      <point x="617" y="979" type="line"/>
      <point x="531" y="979" type="line"/>
      <point x="531" y="1500" type="line"/>
      <point x="508" y="1500" type="line"/>
      <point x="105" y="976" type="line"/>
      <point x="105" y="941" type="line"/>
      <point x="490" y="941" type="line"/>
      <point x="490" y="730" type="line"/>
    </contour>
    <contour>
      <point x="490" y="979" type="line"/>
      <point x="154" y="979" type="line"/>
      <point x="490" y="1415" type="line"/>
    </contour>
  </outline>
</glyph>
<glyph name="franc" format="2">
  <advance width="1309"/>
  <unicode hex="20A3"/>
  <outline>
    <contour>
      <point x="855" y="388" type="line"/>
      <point x="855" y="426" type="line"/>
      <point x="308" y="426" type="line"/>
      <point x="308" y="748" type="line"/>
      <point x="1093" y="748" type="line"/>
      <point x="1093" y="790" type="line"/>
      <point x="308" y="790" type="line"/>
      <point x="308" y="1458" type="line"/>
      <point x="1134" y="1458" type="line"/>
      <point x="1134" y="1500" type="line"/>
      <point x="264" y="1500" type="line"/>
      <point x="264" y="426" type="line"/>
      <point x="55" y="426" type="line" name="dv02"/>
      <point x="55" y="388" type="line" name="dv01"/>
      <point x="264" y="388" type="line"/>
      <point x="264" y="0" type="line"/>
      <point x="308" y="0" type="line"/>
      <point x="308" y="388" type="line"/>
    </contour>
  </outline>
</glyph>
<glyph name="uni20A8" format="2">
  <advance width="1223"/>
  <unicode hex="20A8"/>
  <outline>
    <contour>
      <point x="1038" y="1458" type="line"/>
      <point x="1038" y="1500" type="line"/>
      <point x="185" y="1500" type="line"/>
      <point x="185" y="1458" type="line"/>
      <point x="334" y="1458" type="line" smooth="yes"/>
      <point x="605" y="1458"/>
      <point x="800" y="1315"/>
      <point x="812" y="1113" type="curve"/>
      <point x="185" y="1113" type="line"/>
      <point x="185" y="1071" type="line"/>
      <point x="812" y="1071" type="line"/>
      <point x="798" y="871"/>
      <point x="602" y="731"/>
      <point x="332" y="731" type="curve" smooth="yes"/>
      <point x="185" y="731" type="line"/>
      <point x="185" y="689" type="line"/>
      <point x="327" y="689" type="line"/>
      <point x="763" y="0" type="line"/>
      <point x="815" y="0" type="line"/>
      <point x="379" y="690" type="line"/>
      <point x="652" y="706"/>
      <point x="846" y="859"/>
      <point x="858" y="1071" type="curve"/>
      <point x="1038" y="1071" type="line"/>
      <point x="1038" y="1113" type="line"/>
      <point x="858" y="1113" type="line"/>
      <point x="849" y="1270"/>
      <point x="742" y="1396"/>
      <point x="578" y="1458" type="curve"/>
    </contour>
  </outline>
</glyph>
<glyph name="uni2113" format="1">
  <advance width="966"/>
  <unicode hex="2113"/>
  <outline>
    <contour>
      <point x="791" y="239" type="curve"/>
      <point x="750" y="239" type="line"/>
      <point x="750" y="107"/>
      <point x="665" y="8"/>
      <point x="551" y="8" type="curve" smooth="yes"/>
      <point x="427" y="8"/>
      <point x="343" y="122"/>
      <point x="343" y="290" type="curve" smooth="yes"/>
      <point x="343" y="678" type="line"/>
      <point x="630" y="831"/>
      <point x="786" y="1028"/>
      <point x="786" y="1244" type="curve" smooth="yes"/>
      <point x="786" y="1414"/>
      <point x="689" y="1530"/>
      <point x="550" y="1530" type="curve" smooth="yes"/>
      <point x="407" y="1530"/>
      <point x="302" y="1405"/>
      <point x="302" y="1234" type="curve" smooth="yes"/>
      <point x="302" y="702" type="line"/>
      <point x="228" y="664"/>
      <point x="146" y="629"/>
      <point x="55" y="597" type="curve"/>
      <point x="66" y="559" type="line"/>
      <point x="152" y="589"/>
      <point x="231" y="622"/>
      <point x="302" y="657" type="curve"/>
      <point x="302" y="291" type="line" smooth="yes"/>
      <point x="302" y="98"/>
      <point x="402" y="-30"/>
      <point x="552" y="-30" type="curve" smooth="yes"/>
      <point x="692" y="-30"/>
      <point x="791" y="81"/>
    </contour>
    <contour>
      <point x="343" y="724" type="curve"/>
      <point x="343" y="1237" type="line" smooth="yes"/>
      <point x="343" y="1384"/>
      <point x="432" y="1492"/>
      <point x="551" y="1492" type="curve" smooth="yes"/>
      <point x="666" y="1492"/>
      <point x="744" y="1392"/>
      <point x="744" y="1244" type="curve" smooth="yes"/>
      <point x="744" y="1046"/>
      <point x="604" y="867"/>
    </contour>
  </outline>
</glyph>
<glyph name="trademark" format="2">
  <advance width="1579"/>
  <unicode hex="2122"/>
  <outline>
    <contour>
      <point x="347" y="780" type="line"/>
      <point x="347" y="1462" type="line"/>
      <point x="587" y="1462" type="line"/>
      <point x="587" y="1500" type="line"/>
      <point x="65" y="1500" type="line"/>
      <point x="65" y="1462" type="line"/>
      <point x="306" y="1462" type="line"/>
      <point x="306" y="780" type="line"/>
    </contour>
    <contour>
      <point x="1394" y="780" type="line"/>
      <point x="1394" y="1500" type="line"/>
      <point x="1349" y="1500" type="line"/>
      <point x="1053" y="943" type="line"/>
      <point x="755" y="1500" type="line"/>
      <point x="712" y="1500" type="line"/>
      <point x="712" y="780" type="line"/>
      <point x="753" y="780" type="line"/>
      <point x="753" y="1420" type="line"/>
      <point x="1030" y="901" type="line"/>
      <point x="1075" y="901" type="line"/>
      <point x="1353" y="1420" type="line"/>
      <point x="1353" y="780" type="line"/>
    </contour>
  </outline>
</glyph>
<glyph name="estimated" format="2">
  <advance width="1232"/>
  <unicode hex="212E"/>
  <outline>
    <contour>
      <point x="1077" y="129" type="curve"/>
      <point x="1051" y="163" type="line"/>
      <point x="934" y="67"/>
      <point x="805" y="18"/>
      <point x="667" y="18" type="curve" smooth="yes" name="dv02"/>
      <point x="470" y="18"/>
      <point x="307" y="117"/>
      <point x="307" y="236" type="curve" smooth="yes"/>
      <point x="307" y="492" type="line" name="sh04"/>
      <point x="1127" y="492" type="line" name="dv03"/>
      <point x="1127" y="510" type="line" smooth="yes" name="sh01"/>
      <point x="1127" y="808"/>
      <point x="916" y="1020"/>
      <point x="619" y="1020" type="curve" smooth="yes" name="at01"/>
      <point x="321" y="1020"/>
      <point x="105" y="804"/>
      <point x="105" y="505" type="curve" smooth="yes" name="sh02"/>
      <point x="105" y="200"/>
      <point x="338" y="-20"/>
      <point x="660" y="-20" type="curve" smooth="yes" name="dv01"/>
      <point x="814" y="-20"/>
      <point x="952" y="29"/>
    </contour>
    <contour>
      <point x="925" y="530" type="line" name="dv04"/>
      <point x="307" y="530" type="line" name="sh03"/>
      <point x="307" y="783" type="line" smooth="yes"/>
      <point x="307" y="892"/>
      <point x="447" y="982"/>
      <point x="616" y="982" type="curve" smooth="yes" name="sv01"/>
      <point x="785" y="982"/>
      <point x="925" y="892"/>
      <point x="925" y="783" type="curve" smooth="yes"/>
    </contour>
  </outline>
</glyph>
<glyph name="arrowdown" format="2">
  <advance width="1073"/>
  <unicode hex="2193"/>
  <outline>
    <contour>
      <point x="888" y="500" type="line"/>
      <point x="839" y="500" type="line" name="av01.1"/>
      <point x="559" y="75" type="line"/>
      <point x="559" y="1500" type="line"/>
      <point x="515" y="1500" type="line"/>
      <point x="515" y="75" type="line"/>
      <point x="235" y="500" type="line" name="av01.2"/>
      <point x="185" y="500" type="line"/>
      <point x="513" y="0" type="line" name="at01.1"/>
      <point x="559" y="0" type="line" name="at01.2"/>
    </contour>
  </outline>
</glyph>
<glyph name="product" format="2">
  <advance width="1690"/>
  <unicode hex="220F"/>
  <outline>
    <contour>
      <point x="1375" y="-400" type="line" name="av02"/>
      <point x="1375" y="1458" type="line" name="sv03"/>
      <point x="1575" y="1466" type="line" name="sv02"/>
      <point x="1575" y="1500" type="line"/>
      <point x="115" y="1500" type="line" name="at01"/>
      <point x="115" y="1466" type="line"/>
      <point x="315" y="1458" type="line" name="sv01"/>
      <point x="315" y="-400" type="line" name="av01"/>
      <point x="359" y="-400" type="line" name="sh01"/>
      <point x="359" y="1458" type="line" name="sv05"/>
      <point x="1331" y="1458" type="line" name="sv04"/>
      <point x="1331" y="-400" type="line" name="ah01"/>
    </contour>
  </outline>
</glyph>
<glyph name="infinity" format="1">
  <advance width="2018"/>
  <unicode hex="221E"/>
  <outline>
    <contour>
      <point x="1499" y="84" type="curve" smooth="yes"/>
      <point x="1739" y="84"/>
      <point x="1913" y="257"/>
      <point x="1913" y="495" type="curve" smooth="yes"/>
      <point x="1913" y="730"/>
      <point x="1742" y="895"/>
      <point x="1502" y="895" type="curve" smooth="yes"/>
      <point x="1253" y="895"/>
      <point x="1127" y="716"/>
      <point x="1009" y="530" type="curve"/>
      <point x="893" y="716"/>
      <point x="769" y="895"/>
      <point x="520" y="895" type="curve" smooth="yes"/>
      <point x="278" y="895"/>
      <point x="105" y="726"/>
      <point x="105" y="489" type="curve" smooth="yes"/>
      <point x="105" y="253"/>
      <point x="278" y="84"/>
      <point x="515" y="84" type="curve" smooth="yes"/>
      <point x="762" y="84"/>
      <point x="889" y="268"/>
      <point x="1010" y="456" type="curve"/>
      <point x="1128" y="268"/>
      <point x="1251" y="84"/>
    </contour>
    <contour>
      <point x="1499" y="122" type="curve" smooth="yes"/>
      <point x="1265" y="122"/>
      <point x="1149" y="304"/>
      <point x="1033" y="492" type="curve"/>
      <point x="1152" y="678"/>
      <point x="1272" y="857"/>
      <point x="1503" y="857" type="curve" smooth="yes"/>
      <point x="1716" y="857"/>
      <point x="1870" y="705"/>
      <point x="1870" y="491" type="curve" smooth="yes"/>
      <point x="1870" y="276"/>
      <point x="1715" y="122"/>
    </contour>
    <contour>
      <point x="986" y="495" type="curve"/>
      <point x="867" y="306"/>
      <point x="750" y="122"/>
      <point x="518" y="122" type="curve" smooth="yes"/>
      <point x="305" y="122"/>
      <point x="151" y="276"/>
      <point x="151" y="491" type="curve" smooth="yes"/>
      <point x="151" y="705"/>
      <point x="305" y="857"/>
      <point x="520" y="857" type="curve" smooth="yes"/>
      <point x="754" y="857"/>
      <point x="871" y="680"/>
    </contour>
  </outline>
</glyph>
<glyph name="f_f" format="2">
  <advance width="1308"/>
  <unicode hex="FB00"/>
  <outline>
    <contour>
      <point x="341" y="0" type="line"/>
      <point x="341" y="962" type="line"/>
      <point x="835" y="962" type="line"/>
      <point x="835" y="0" type="line"/>
      <point x="876" y="0" type="line"/>
      <point x="876" y="962" type="line"/>
      <point x="1196" y="962" type="line"/>
      <point x="1196" y="1000" type="line"/>
      <point x="876" y="1000" type="line"/>
      <point x="876" y="1267" type="line" smooth="yes"/>
      <point x="876" y="1403"/>
      <point x="953" y="1492"/>
      <point x="1070" y="1492" type="curve" smooth="yes"/>
      <point x="1114" y="1492"/>
      <point x="1160" y="1479"/>
      <point x="1207" y="1454" type="curve"/>
      <point x="1223" y="1489" type="line"/>
      <point x="1172" y="1516"/>
      <point x="1118" y="1530"/>
      <point x="1067" y="1530" type="curve" smooth="yes"/>
      <point x="927" y="1530"/>
      <point x="835" y="1429"/>
      <point x="835" y="1274" type="curve" smooth="yes"/>
      <point x="835" y="1000" type="line"/>
      <point x="341" y="1000" type="line"/>
      <point x="341" y="1267" type="line" smooth="yes"/>
      <point x="341" y="1403"/>
      <point x="418" y="1492"/>
      <point x="535" y="1492" type="curve" smooth="yes"/>
      <point x="579" y="1492"/>
      <point x="625" y="1479"/>
      <point x="672" y="1454" type="curve"/>
      <point x="688" y="1489" type="line"/>
      <point x="637" y="1516"/>
      <point x="583" y="1530"/>
      <point x="532" y="1530" type="curve" smooth="yes"/>
      <point x="392" y="1530"/>
      <point x="300" y="1429"/>
      <point x="300" y="1274" type="curve" smooth="yes"/>
      <point x="300" y="1000" type="line"/>
      <point x="125" y="1000" type="line"/>
      <point x="125" y="962" type="line"/>
      <point x="300" y="962" type="line"/>
      <point x="300" y="0" type="line"/>
    </contour>
  </outline>
</glyph>
<glyph name="fi" format="2">
  <advance width="1077"/>
  <unicode hex="FB01"/>
  <outline>
    <contour>
      <point x="341" y="0" type="line"/>
      <point x="341" y="962" type="line"/>
      <point x="851" y="962" type="line"/>
      <point x="851" y="0" type="line"/>
      <point x="892" y="0" type="line"/>
      <point x="892" y="1000" type="line"/>
      <point x="341" y="1000" type="line"/>
      <point x="341" y="1267" type="line" smooth="yes"/>
      <point x="341" y="1403"/>
      <point x="418" y="1492"/>
      <point x="535" y="1492" type="curve" smooth="yes"/>
      <point x="579" y="1492"/>
      <point x="625" y="1479"/>
      <point x="672" y="1454" type="curve"/>
      <point x="688" y="1489" type="line"/>
      <point x="637" y="1516"/>
      <point x="583" y="1530"/>
      <point x="532" y="1530" type="curve" smooth="yes"/>
      <point x="392" y="1530"/>
      <point x="300" y="1429"/>
      <point x="300" y="1274" type="curve" smooth="yes"/>
      <point x="300" y="1000" type="line"/>
      <point x="125" y="1000" type="line"/>
      <point x="125" y="962" type="line"/>
      <point x="300" y="962" type="line"/>
      <point x="300" y="0" type="line"/>
    </contour>
  </outline>
</glyph>
<glyph name="fl" format="2">
  <advance width="1173"/>
  <unicode hex="FB02"/>
  <outline>
    <contour>
      <point x="988" y="0" type="line"/>
      <point x="988" y="1184" type="line" smooth="yes" name="av01"/>
      <point x="988" y="1394"/>
      <point x="852" y="1530"/>
      <point x="644" y="1530" type="curve" smooth="yes"/>
      <point x="436" y="1530"/>
      <point x="300" y="1393"/>
      <point x="300" y="1184" type="curve" smooth="yes"/>
      <point x="300" y="1000" type="line"/>
      <point x="125" y="1000" type="line"/>
      <point x="125" y="962" type="line"/>
      <point x="300" y="962" type="line"/>
      <point x="300" y="0" type="line"/>
      <point x="341" y="0" type="line"/>
      <point x="341" y="962" type="line"/>
      <point x="661" y="962" type="line"/>
      <point x="661" y="1000" type="line"/>
      <point x="341" y="1000" type="line"/>
      <point x="341" y="1176" type="line" smooth="yes"/>
      <point x="341" y="1368"/>
      <point x="460" y="1492"/>
      <point x="644" y="1492" type="curve" smooth="yes"/>
      <point x="828" y="1492"/>
      <point x="947" y="1368"/>
      <point x="947" y="1176" type="curve" smooth="yes" name="dh01"/>
      <point x="947" y="0" type="line" name="ab01"/>
    </contour>
  </outline>
</glyph>
<glyph name="f_f_i" format="2">
  <advance width="1607"/>
  <unicode hex="FB03"/>
  <outline>
    <contour>
      <point x="871" y="0" type="line"/>
      <point x="871" y="962" type="line"/>
      <point x="1381" y="962" type="line"/>
      <point x="1381" y="0" type="line"/>
      <point x="1422" y="0" type="line"/>
      <point x="1422" y="1000" type="line"/>
      <point x="871" y="1000" type="line"/>
      <point x="871" y="1267" type="line" smooth="yes"/>
      <point x="871" y="1403"/>
      <point x="948" y="1492"/>
      <point x="1065" y="1492" type="curve" smooth="yes"/>
      <point x="1109" y="1492"/>
      <point x="1155" y="1479"/>
      <point x="1202" y="1454" type="curve"/>
      <point x="1218" y="1489" type="line"/>
      <point x="1167" y="1516"/>
      <point x="1113" y="1530"/>
      <point x="1062" y="1530" type="curve" smooth="yes"/>
      <point x="922" y="1530"/>
      <point x="830" y="1429"/>
      <point x="830" y="1274" type="curve" smooth="yes"/>
      <point x="830" y="1000" type="line"/>
      <point x="341" y="1000" type="line"/>
      <point x="341" y="1267" type="line" smooth="yes"/>
      <point x="341" y="1403"/>
      <point x="418" y="1492"/>
      <point x="535" y="1492" type="curve" smooth="yes"/>
      <point x="579" y="1492"/>
      <point x="625" y="1479"/>
      <point x="672" y="1454" type="curve"/>
      <point x="688" y="1489" type="line"/>
      <point x="637" y="1516"/>
      <point x="583" y="1530"/>
      <point x="532" y="1530" type="curve" smooth="yes"/>
      <point x="392" y="1530"/>
      <point x="300" y="1429"/>
      <point x="300" y="1274" type="curve" smooth="yes"/>
      <point x="300" y="1000" type="line"/>
      <point x="125" y="1000" type="line"/>
      <point x="125" y="962" type="line"/>
      <point x="300" y="962" type="line"/>
      <point x="300" y="0" type="line"/>
      <point x="341" y="0" type="line"/>
      <point x="341" y="962" type="line"/>
      <point x="830" y="962" type="line"/>
      <point x="830" y="0" type="line"/>
    </contour>
  </outline>
</glyph>
<glyph name="longs_t.liga" format="2">
  <advance width="1390"/>
  <outline>
    <contour>
      <point x="341" y="0" type="line"/>
      <point x="341" y="962" type="line"/>
      <point x="661" y="962" type="line"/>
      <point x="661" y="1000" type="line"/>
      <point x="341" y="1000" type="line"/>
      <point x="341" y="1176" type="line" smooth="yes"/>
      <point x="341" y="1368"/>
      <point x="460" y="1492"/>
      <point x="644" y="1492" type="curve" smooth="yes"/>
      <point x="828" y="1492"/>
      <point x="947" y="1368"/>
      <point x="947" y="1176" type="curve" smooth="yes" name="dh01"/>
      <point x="947" y="230" type="line" smooth="yes"/>
      <point x="947" y="79"/>
      <point x="1039" y="-20"/>
      <point x="1178" y="-20" type="curve" smooth="yes"/>
      <point x="1231" y="-20"/>
      <point x="1284" y="-6"/>
      <point x="1335" y="21" type="curve"/>
      <point x="1319" y="56" type="line"/>
      <point x="1272" y="31"/>
      <point x="1226" y="18"/>
      <point x="1182" y="18" type="curve" smooth="yes"/>
      <point x="1065" y="18"/>
      <point x="988" y="106"/>
      <point x="988" y="238" type="curve" smooth="yes"/>
      <point x="988" y="1184" type="line" smooth="yes" name="av01"/>
      <point x="988" y="1394"/>
      <point x="852" y="1530"/>
      <point x="644" y="1530" type="curve" smooth="yes"/>
      <point x="436" y="1530"/>
      <point x="300" y="1393"/>
      <point x="300" y="1184" type="curve" smooth="yes"/>
      <point x="300" y="1000" type="line"/>
      <point x="125" y="1000" type="line"/>
      <point x="125" y="962" type="line"/>
      <point x="300" y="962" type="line"/>
      <point x="300" y="0" type="line"/>
    </contour>
  </outline>
</glyph>
<glyph name="periodcentered.loclCAT.case" format="2">
  <outline>
    <contour>
      <point x="-365" y="700" type="curve" smooth="yes"/>
      <point x="-336" y="700"/>
      <point x="-315" y="721"/>
      <point x="-315" y="750" type="curve" smooth="yes"/>
      <point x="-315" y="777"/>
      <point x="-336" y="800"/>
      <point x="-365" y="800" type="curve" smooth="yes"/>
      <point x="-394" y="800"/>
      <point x="-415" y="777"/>
      <point x="-415" y="750" type="curve" smooth="yes"/>
      <point x="-415" y="721"/>
      <point x="-394" y="700"/>
    </contour>
  </outline>
</glyph>
